<?xml version="1.0" encoding="utf-8"?>
<!-- Generator: Adobe Illustrator 16.0.0, SVG Export Plug-In . SVG Version: 6.00 Build 0)  -->
<!DOCTYPE svg PUBLIC "-//W3C//DTD SVG 1.1//EN" "http://www.w3.org/Graphics/SVG/1.1/DTD/svg11.dtd">
<svg version="1.1" id="Layer_1" xmlns="http://www.w3.org/2000/svg" xmlns:xlink="http://www.w3.org/1999/xlink" x="0px" y="0px"
	 width="720px" height="503.999px" viewBox="0 0 720 503.999" enable-background="new 0 0 720 503.999" xml:space="preserve">
<symbol  id="New_Symbol" viewBox="-0.763 -0.763 1.526 1.525">
	<path fill="#FFFFFF" d="M0.763,0c0-0.421-0.342-0.762-0.763-0.762S-0.763-0.421-0.763,0S-0.421,0.763,0,0.763S0.763,0.42,0.763,0z"
		/>
</symbol>
<rect fill="#FFFFFF" width="720" height="503.999"/>
<g>
	<path fill="#E7EDDE" d="M394.578,312.6c-6.216,150.249-86.265,148.334-192.084,150.249C105.581,464.604,9.604,492.01,11.322,312.6
		c1.019-106.531,85.793-192.901,191.627-192.901C308.783,119.699,398.98,206.169,394.578,312.6z"/>
	<path fill="#E7EDDE" d="M708.964,270.929c-6.772,211.573-39.055,195.249-246.577,189.663
		c-130.17-3.504-256.729,38.032-254.484-189.663c1.332-135.204,112.165-244.821,250.53-244.821
		c68.733,0,132.423,27.082,178.411,70.898C683.435,141.393,711.141,202.92,708.964,270.929z"/>
</g>
<polygon fill="#F5FFFD" points="675.584,436.886 42.973,436.835 35.314,427.202 681.667,427.202 "/>
<polygon fill="#B7CFCD" points="690.917,489.814 10.917,489.814 42.973,436.835 675.584,436.886 "/>
<g>
	<ellipse opacity="0.2" fill="#665F52" cx="625.94" cy="452.751" rx="20.006" ry="2.804"/>
	<path fill="#998F82" d="M588.908,410.709c-1.518,3.997-2.37,8.436-2.37,13.114c0,17.335,11.606,31.409,26.002,31.667
		c9.852-11.574,13.357-28.863,13.562-44.781H588.908z"/>
	<path fill="#897E72" d="M636.971,410.709h-10.868c-0.205,15.918-3.711,33.207-13.562,44.781c0.134,0.002,0.266,0.012,0.399,0.012
		c14.581,0,26.401-14.183,26.401-31.679C639.341,419.145,638.488,414.706,636.971,410.709z"/>
	<ellipse fill="#595247" cx="612.873" cy="410.709" rx="24.127" ry="2.421"/>
	<g>
		<path fill="#334424" d="M599.484,298.683c-1.363-5.318-2.919-11.151-2.919-11.151l-2.116-0.307c0,0,0.903,3.434,2.205,8.599
			C597.734,296.676,598.665,297.64,599.484,298.683z"/>
		<path fill="#41573F" d="M609.427,341.826c-1.312-7.824-7.705-34.246-9.164-40.074c-0.242-0.969-0.507-2.01-0.778-3.069
			c-0.819-1.043-1.75-2.007-2.83-2.859c3.021,11.991,8.199,33.371,9.291,43.194c0.816,7.35,2.252,26.889,3.43,44.039l3.972,6.759
			C611.964,370.619,610.104,345.858,609.427,341.826z"/>
		<path fill="#334424" d="M609.375,383.057c1.075,15.646,1.937,29.304,1.919,29.897l3.688,0.043c0,0-0.711-10.348-1.635-23.182
			L609.375,383.057z"/>
		<path fill="#7A8C75" d="M609.745,262.223c0.898-5.2-5.666-8.6-10.137-10.546c-4.471-1.944-9.388-2.803-12.164-5.51
			c-2.775-2.707-7.963-8.646-13.386-8.996c-5.422-0.351-13.443-0.659-20.333-2.811c-4.484-1.401-10.074,2.572-18.057,0.149
			c0.291,0.16,4.892,2.279,5.199,2.395c6.842,2.281,15.394,1.141,23.376,5.702c3.991,2.28,10.833-1.141,13.685,3.421
			c6.271,9.123,14.254,11.974,21.666,18.245c6.33,6.33,3.383,18.512-4.769,23.008c0.293,0.043,0.813,0.119,1.739,0.252
			C615.816,290.326,608.846,267.42,609.745,262.223z"/>
		<path fill="#41573F" d="M599.595,264.271c-7.412-6.271-15.395-9.122-21.666-18.245c-2.852-4.562-9.693-1.141-13.685-3.421
			c-7.982-4.562-16.534-3.421-23.376-5.702c-0.308-0.115-4.908-2.234-5.199-2.395c-0.574,2.139-0.259,4.97,21.175,12.114
			c22.615,7.538,37.605,40.601,37.605,40.601s0,0,0.377,0.055C602.978,282.783,605.925,270.602,599.595,264.271z"/>
	</g>
	<path fill="#334424" d="M573.544,329.955l-1.734,1.141c0.893,1.759,1.746,3.443,2.568,5.068c1.983,1.788,3.779,3.576,5.567,5.364
		C577.346,336.461,575.093,332.324,573.544,329.955z"/>
	<path fill="#41573F" d="M595.419,373.389c-4.899-10.413-10.759-22.672-15.474-31.86c-1.788-1.788-3.584-3.576-5.567-5.364
		c19.019,37.576,19.68,40.041,20.619,43.016c0.676,2.14,1.579,5.718,2.509,9.951l4.396,4.396
		C600.238,386.33,598.061,379.002,595.419,373.389z"/>
	<path fill="#334424" d="M605.294,412.864c-0.582-5.086-1.729-12.146-3.392-19.337l-4.396-4.396
		c1.588,7.24,3.249,16.399,3.962,23.578C602.982,412.785,604.03,412.872,605.294,412.864z"/>
	<path fill="#7A8C75" d="M524.866,301.258c0,0-6.272,9.502,3.23,14.254s5.893-4.752,18.626,0s26.821,14.443,26.821,14.443
		s6.248-3.207,4.537-8.16c-1.71-4.953-11.594-10.084-11.783-12.936c-0.189-2.85-3.801-1.52-8.932-1.52
		c-5.132,0-4.942-10.072-14.445-9.123c-9.502,0.949-16.154-0.062-16.154-0.062L524.866,301.258z"/>
	<path fill="#41573F" d="M571.81,331.096l1.734-1.141c1.216,2.119-5.348-11.551-11.047-12.162
		c-5.322-0.57-16.154-4.182-18.245-5.133c-2.091-0.949-11.965,2.584-16.155,2.852c-1.117,0.072,4.395,1.805,10.429,2.209
		c3.726,0.25,6.701-0.816,8.007-0.309C549.954,318.742,567.716,324.689,571.81,331.096z"/>
	<path fill="#41573F" d="M606.205,389.33c-1.689-19.82-3.668-43.09-4.034-47.59c-0.008-0.1-0.017-0.188-0.025-0.285
		c-0.879-2.354-1.888-4.709-3.104-6.988l4.297,51.997L606.205,389.33z"/>
	<path fill="#334424" d="M599.462,325.711l-1.141,0.064l0.098,1.156l0.623,7.535c1.216,2.279,2.225,4.635,3.104,6.988
		C601.5,333.796,600.494,332.121,599.462,325.711z"/>
	<path fill="#334424" d="M603.339,386.464l2.182,26.4c0.898-0.002,1.797,0.014,2.695,0.047c-0.467-5.473-1.206-14.136-2.011-23.581
		L603.339,386.464z"/>
	<path fill="#334424" d="M599.113,327.811c0.937-0.041,6.21-3.461,6.638-7.168c0.428-3.705-2.441-10.461-3.777-11.688
		c-1.335-1.227-4.062,14.682-4.062,14.682L599.113,327.811z"/>
	<path fill="#41573F" d="M598.419,326.932c0,0,7.457-7.713,5.105-15.553s-7.483-15.395-22.165-19.814
		c-14.682-4.418-16.393-4.275-17.96-4.988c-1.568-0.713-11.346-1.996-14.967-1.996s8.837,3.137,15.822,13.574
		C568.65,304.725,589.866,312.107,598.419,326.932z"/>
	<path fill="#334424" d="M615.452,388.052c-1.461,10.401-2.782,19.388-3.596,24.909c0.978,0.048,2.147,0.011,3.125,0.036
		c0.992-6.054,2.651-16.378,4.426-28.317C618.188,386.054,617.13,387.37,615.452,388.052z"/>
	<path fill="#334424" d="M619.107,259.065l-2.825-3.705c0,0,1.196,5.657,2.6,14.168c1.235,2.523,2.384,5.102,3.425,7.722
		C620.576,266.839,619.107,259.065,619.107,259.065z"/>
	<path fill="#41573F" d="M622.307,277.25c-1.041-2.62-2.189-5.198-3.425-7.722c2.287,13.868,5.126,35.318,4.242,52.269
		c-0.801,15.368-4.554,44.049-7.672,66.255c1.678-0.682,2.735-1.998,3.955-3.372c4.076-27.424,8.768-63.385,7.423-75.793
		C625.734,298.78,623.908,286.886,622.307,277.25z"/>
	<path fill="#7A8C75" d="M619.107,257.925c0,0,8.293-2.281,9.291-8.267c0.997-5.986,1.995-2.851,3.278-3.278
		s3.278-8.125,1.71-11.118c-1.567-2.993-9.011-7.386-13.058-6.758s-2.479,11.485-2.621,14.681S616.23,253.221,619.107,257.925z"/>
	<path fill="#41573F" d="M619.107,259.065c0,0-2.021-9.123,0-10.691c2.021-1.567-0.025-4.561,0-6.129s4.214-7.115,0.893-14.539
		c-4.146-9.266-13.839-12.687-18.97-15.537c-5.132-2.851-6.557-6.414-10.548-7.127s-14.228-5.56-14.598-7.697
		c-0.37-2.139-8.779-6.129-8.637-9.55c0.143-3.421-1.996,6.415,6.414,15.251c8.41,8.838,29.791,29.791,32.214,33.925
		c2.424,4.134,9.836,18.389,9.836,18.389L619.107,259.065z"/>
	<path fill="#334424" d="M622.288,384.494c-2.429,11.049-4.795,22.001-6.174,28.417c1.219,0.011,2.38,0.091,3.599,0
		c1.464-7.045,4.11-19.486,6.809-31.865C625.047,382.132,623.485,383.131,622.288,384.494z"/>
	<path fill="#334424" d="M650.92,297.551c0,0-2.591,6.046-4.768,11.28c0.97-0.721,1.991-1.389,3.049-2.021
		c2.268-5.517,3.856-9.26,3.856-9.26H650.92z"/>
	<path fill="#41573F" d="M645.218,311.094c-2.28,5.559-12.4,30.789-14.824,38.344c-1.002,3.122-4.617,19.189-8.105,35.057
		c1.197-1.363,2.759-2.362,4.233-3.448c3.057-14.024,6.179-27.968,7.721-33.89c2.415-9.272,10.193-28.747,14.959-40.346
		c-1.058,0.632-2.079,1.3-3.049,2.021C645.829,309.61,645.514,310.373,645.218,311.094z"/>
	<path fill="#41573F" d="M653.058,297.551c0,0,19.584-30.568,43.048-34.779c22.236-3.991,20.525-3.563,20.811-4.847
		s-8.837-7.982-15.964-6.841c-7.128,1.14-15.109,0.293-20.526-0.139s-11.403,4.699-14.539,6.98
		c-3.136,2.28-8.125,2.423-12.829,3.706s-11.688,3.707-11.546,8.98s-10.045,26.939,9.408,26.939
		C653.058,297.551,653.058,297.551,653.058,297.551z"/>
	<path fill="#7A8C75" d="M681.258,330.201c0,0-6.392-5.068-9.456-4.498s-6.699,1.783-8.125,1.641
		c-1.425-0.143-6.699,0.346-8.268,1.562c-1.567,1.217-5.036,3.332-5.867,6.373c-0.832,3.039,7.15-2.734,10.785-2.947
		C663.962,332.117,681.258,330.201,681.258,330.201z"/>
	<path fill="#334424" d="M620.048,412.901c1.013-0.083,1.976-0.021,2.987-0.211c1.793-6.675,4.504-16.723,6.171-22.677
		c0.164-0.586,0.398-1.271,0.692-2.038c-1.359,1.245-2.599,2.608-3.986,3.824C623.627,399.118,621.431,407.447,620.048,412.901z"/>
	<path fill="#334424" d="M651.446,344.28c0,0-0.969,1.503-2.507,3.931c-0.349,2.061-0.848,4.121-1.441,6.182
		c3.02-5.246,5.182-8.883,5.182-8.883L651.446,344.28z"/>
	<path fill="#41573F" d="M630.347,379.75c-1.378,2.829-2.926,7.22-4.435,12.05c1.388-1.216,2.627-2.579,3.986-3.824
		c2.928-7.649,11.829-23.558,17.6-33.583c0.594-2.061,1.093-4.121,1.441-6.182C644.296,355.543,634.451,371.326,630.347,379.75z"/>
	<path fill="#41573F" d="M683.371,331.285c0,0-19.86,3.137-23.566,6.654c-3.706,3.516-7.125,7.57-7.125,7.57
		s-7.51-6.619-3.138-10.23c4.371-3.613,9.598-3.139,10.833-3.994c1.235-0.854,10.833-3.039,14.254-2.184
		S681.565,329.574,683.371,331.285z"/>
</g>
<path fill="#465172" d="M456.624,399.189H206.369l-31.569-75.023c0,0,30.904-4.912,45.13-6.333
	c17.33-1.729,180.871-2.307,205.097-1.571c20.637,0.629,70.997,8.05,70.997,8.05L456.624,399.189z"/>
<path fill="#303853" d="M220.825,346.598c0,0,47.075,27.163,83.843,30.934s145.822,4.583,145.822,4.583v10.605H231.31
	C231.31,392.72,227.45,354.307,220.825,346.598z"/>
<path fill="#566489" d="M456.352,399.189h-231.2v-10.347c0,0,79.907-3.125,109.518-2.514c29.612,0.611,121.682,2.514,121.682,2.514
	V399.189z"/>
<g>
	<path fill="#89936C" d="M386.541,390.69c3.827-0.302,14.037-2.497,21.474-2.165c-1.095-0.555-2.155-1.105-3.026-1.521
		C398.619,384.729,392.255,386.584,386.541,390.69z"/>
	<path fill="#89936C" d="M387.388,359.896c0.339,4.113,0.979,19.9-0.37,21.832c-0.279,0.396-0.621,0.962-0.97,1.617
		C390.691,378.452,390.877,368.002,387.388,359.896z"/>
	<path fill="#98A579" d="M453.013,351.739L453.013,351.739c-0.308-0.278-0.716-0.358-1.264-0.175
		c-4.979,1.677-57.995-1.257-60.337-2.095c-2.346-0.839-5.86,0-5.86,0c-1.172,4.608,1.466,7.541,1.757,9.636
		c0.025,0.164,0.05,0.44,0.079,0.791c3.489,8.105,3.304,18.556-1.34,23.449c-1.488,2.791-3.106,7.217-0.496,7.373
		c0.249,0.015,0.588,0.002,0.989-0.028c5.714-4.106,12.078-5.962,18.447-3.686c0.871,0.415,1.932,0.966,3.026,1.521
		c1.799,0.079,3.435,0.306,4.777,0.743c2.537,0.83,5.96,1.415,9.724,1.798c9.568-0.513,19.389-3.121,28.672-1.997
		c-5.789-4.309-2.909-17.772-2.477-21.796C449.148,363.188,453.013,351.739,453.013,351.739z"/>
	<path fill="#89936C" d="M451.188,389.069c-9.283-1.124-19.104,1.484-28.672,1.997c13.341,1.357,30.995,0.162,28.939-1.798
		C451.361,389.206,451.277,389.136,451.188,389.069z"/>
	<path fill="#89936C" d="M450.575,375.443c0.261-5.593,4.924-21.46,2.438-23.704l0,0c0,0-3.864,11.449-4.302,15.534
		c-0.44,4.085-3.407,17.912,2.744,21.995C448.819,386.755,450.284,381.729,450.575,375.443z"/>
</g>
<g>
	<path fill="#A2B29E" d="M285.881,389.778c-3.37-0.342-12.341-2.646-18.9-2.394c0.972-0.542,1.914-1.082,2.687-1.488
		C275.308,383.688,280.895,385.61,285.881,389.778z"/>
	<path fill="#A2B29E" d="M285.505,358.978c-0.348,4.108-1.101,19.889,0.064,21.834c0.241,0.399,0.536,0.969,0.835,1.628
		C282.37,377.496,282.333,367.046,285.505,358.978z"/>
	<path fill="#C3CDC1" d="M227.765,350.125L227.765,350.125c0.275-0.276,0.636-0.352,1.116-0.162
		c4.368,1.729,51.128-0.642,53.203-1.454c2.077-0.814,5.165,0.062,5.165,0.062c0.978,4.621-1.383,7.525-1.665,9.616
		c-0.024,0.164-0.049,0.44-0.08,0.791c-3.172,8.068-3.135,18.519,0.899,23.462c1.277,2.807,2.65,7.249,0.348,7.377
		c-0.22,0.013-0.519-0.004-0.872-0.038c-4.986-4.168-10.573-6.091-16.213-3.882c-0.773,0.406-1.714,0.946-2.687,1.488
		c-1.586,0.06-3.03,0.27-4.22,0.692c-2.245,0.803-5.269,1.354-8.591,1.695c-8.427-0.614-17.05-3.327-25.245-2.301
		c5.154-4.247,2.778-17.741,2.444-21.768C231.034,361.613,227.765,350.125,227.765,350.125z"/>
	<path fill="#A2B29E" d="M228.925,387.472c8.195-1.026,16.818,1.687,25.245,2.301c-11.774,1.215-27.319-0.167-25.484-2.104
		C228.77,387.605,228.845,387.536,228.925,387.472z"/>
	<path fill="#A2B29E" d="M229.628,373.853c-0.162-5.596-4.081-21.511-1.863-23.728l0,0c0,0,3.269,11.488,3.604,15.579
		c0.339,4.089,2.788,17.946-2.683,21.964C231.04,385.182,229.809,380.141,229.628,373.853z"/>
</g>
<path fill="#566489" d="M230.302,388.659c0,0,2.267-14.583,0-24.323c-1.425-6.124-10.947-23.782-24.448-32.156
	c-13.5-8.377-28.725-10.89-38.779-5.549c-10.053,5.341-6.319,10.684-6.319,10.684s31.496,0.139,42.513,10.683
	c11.49,10.996,19.246,34.51,18.959,40.662H230.302z"/>
<path fill="#566489" d="M451.206,388.659c0,0-2.267-14.583,0-24.323c1.425-6.124,10.946-23.782,24.448-32.156
	c13.5-8.377,28.725-10.89,38.778-5.549s6.319,10.684,6.319,10.684s-31.496,0.139-42.514,10.683
	c-11.489,10.996-19.245,34.51-18.957,40.662H451.206z"/>
<rect x="222.228" y="416.298" fill="#303853" width="236.12" height="14.566"/>
<rect x="222.228" y="399.189" fill="#28304A" width="236.12" height="18.63"/>
<rect x="226.043" y="399.189" fill="#404C6B" width="229.417" height="17.109"/>
<path fill="#404C6B" d="M160.756,337.314c0,0,11.777,26.707,16.948,40.845c5.17,14.139,9.767,35.92,10.341,39.327
	c0.575,3.404,0.44,18.104,34.47,13.772c3.25-0.414,2.586-49.467,2.586-49.467s1.877-29.872-26.428-42.907
	C171.385,326.317,163.054,334.801,160.756,337.314z"/>
<path fill="#404C6B" d="M520.752,337.314c0,0-11.777,26.707-16.948,40.845c-5.17,14.139-9.767,35.92-10.341,39.327
	c-0.574,3.404-0.439,18.104-34.47,13.772c-3.25-0.414-2.585-49.467-2.585-49.467s-1.878-29.872,26.427-42.907
	C510.123,326.317,518.453,334.801,520.752,337.314z"/>
<rect x="226.042" y="430.864" fill="#665F52" width="5.268" height="21.38"/>
<rect x="450.38" y="430.864" fill="#665F52" width="5.268" height="21.38"/>
<ellipse opacity="0.2" fill="#665F52" cx="339.253" cy="452.752" rx="113.211" ry="4.608"/>
<g>
	<g>
		<polygon fill="#B5B5B5" points="200.681,271.401 203.808,268.228 203.808,158.843 200.681,155.669 		"/>
		<polygon opacity="0.1" fill="#665F52" points="289.234,276.92 208.901,276.92 201.04,270.652 201.045,155.67 283.474,155.637 
			289.234,161.259 		"/>
		<g>
			<g>
				<g>
					<g>
						<rect x="200.681" y="155.67" fill="#D4D4D5" width="84.307" height="115.732"/>
					</g>
					<g>
						<rect x="203.887" y="158.844" fill="#ECECEC" width="77.473" height="109.384"/>
					</g>
				</g>
				<g>
					<rect x="203.57" y="158.844" fill="#A0A0A0" width="0.952" height="109.384"/>
				</g>
				<g opacity="0.6">
					<rect x="280.891" y="158.844" opacity="0.7" fill="#A0A0A0" width="0.632" height="109.384"/>
				</g>
				<g>
					<rect x="204.522" y="158.844" fill="#A0A0A0" width="76.837" height="0.948"/>
				</g>
			</g>
			<g>
				<path fill="#D1CDC1" d="M272.079,251.63h-57.627v-72.238h57.627V251.63z"/>
			</g>
		</g>
		<polygon fill="#EAEAEA" points="284.987,271.402 281.376,268.228 281.376,158.844 284.987,155.67 		"/>
		<polygon fill="#BCBCBC" points="203.808,268.228 200.681,271.381 200.681,155.67 203.57,158.844 		"/>
		<rect x="204.522" y="267.762" opacity="0.7" fill="#A0A0A0" width="76.837" height="0.466"/>
	</g>
	<path fill="#E2DFD9" d="M242.624,196.72c-9.282,0-16.806,7.524-16.806,16.806c0,9.282,7.524,16.806,16.806,16.806
		s16.806-7.524,16.806-16.806C259.43,204.244,251.905,196.72,242.624,196.72z M242.624,222.332c-4.863,0-8.806-3.943-8.806-8.806
		s3.943-8.806,8.806-8.806s8.806,3.942,8.806,8.806S247.487,222.332,242.624,222.332z"/>
</g>
<g>
	<g>
		<polygon fill="#B5B5B5" points="376.44,268.648 379.568,265.475 379.568,156.09 376.44,152.917 		"/>
		<polygon opacity="0.1" fill="#665F52" points="464.995,274.167 384.661,274.167 376.8,267.899 376.806,152.917 459.233,152.884 
			464.995,158.506 		"/>
		<g>
			<g>
				<g>
					<g>
						<rect x="376.44" y="152.917" fill="#D4D4D5" width="84.307" height="115.732"/>
					</g>
					<g>
						<rect x="379.647" y="156.091" fill="#ECECEC" width="77.473" height="109.384"/>
					</g>
				</g>
				<g>
					<rect x="379.331" y="156.091" fill="#A0A0A0" width="0.951" height="109.384"/>
				</g>
				<g opacity="0.6">
					<rect x="456.651" y="156.091" opacity="0.7" fill="#A0A0A0" width="0.633" height="109.384"/>
				</g>
				<g>
					<rect x="380.282" y="156.091" fill="#A0A0A0" width="76.838" height="0.948"/>
				</g>
			</g>
			<g>
				<path fill="#D1CDC1" d="M447.839,248.877h-57.627v-72.238h57.627V248.877z"/>
			</g>
		</g>
		<polygon fill="#EAEAEA" points="460.747,268.649 457.136,265.475 457.136,156.091 460.747,152.917 		"/>
		<polygon fill="#BCBCBC" points="379.568,265.475 376.44,268.628 376.44,152.917 379.331,156.091 		"/>
		<rect x="380.282" y="265.009" opacity="0.7" fill="#A0A0A0" width="76.838" height="0.466"/>
	</g>
	<path fill="#E2DFD9" d="M426.947,195.938h-17.128l-8.564,14.834l8.564,14.834h17.128l8.565-14.834L426.947,195.938z
		 M423.227,219.162h-9.687l-4.844-8.389l4.844-8.389h9.687l4.845,8.389L423.227,219.162z"/>
</g>
<g>
	<g>
		<path fill="#6D8480" d="M509.846,30.25h-1.316v65.598c0.438-0.257,0.878-0.515,1.316-0.772V30.25z"/>
		<path fill="#5F7571" d="M508.529,95.848v73.215h1.316V94.719C509.407,95.096,508.968,95.472,508.529,95.848z"/>
		<polygon fill="#5F7571" points="515.988,174.839 509.846,167.674 508.529,167.674 502.681,174.984 502.681,175.125 
			515.988,175.125 		"/>
		<rect x="502.681" y="175.125" fill="#6D8480" width="13.308" height="19.453"/>
		<path fill="#7B9491" d="M545.743,216.074l-29.829-21.496h-2.081h-2h-2.425h-0.146h-6.507l-29.831,21.496
			c-6.424,4.426-4.746,5.738-3.801,6.287l40.139,0.109l0,0h0.072h0.074l0,0l24.926-0.068L547,222.368l2.546-0.007
			C550.491,221.812,552.5,220.5,545.743,216.074z"/>
	</g>
	<polygon fill="#90A5A2" points="511.833,194.578 533.333,222.471 545.167,222.373 513.833,194.578 	"/>
	<rect x="512.114" y="175.125" fill="#90A5A2" width="1.562" height="19.453"/>
</g>
<g>
	<g>
		<path fill="#6D8480" d="M329.827,63.179h-0.961v46.897c0.32-0.184,0.641-0.368,0.961-0.552V63.179z"/>
		<path fill="#5F7571" d="M328.866,110.076v52.343h0.961v-53.15C329.506,109.539,329.186,109.808,328.866,110.076z"/>
		<polygon fill="#5F7571" points="334.31,166.549 329.827,161.427 328.866,161.427 324.597,166.653 324.597,166.754 334.31,166.754 
					"/>
		<rect x="324.597" y="166.754" fill="#6D8480" width="9.713" height="13.907"/>
		<path fill="#7B9491" d="M356.028,196.029l-21.772-15.368h-1.519h-1.459h-1.77H329.4h-4.75l-21.773,15.368
			c-4.688,3.164-3.464,4.103-2.774,4.495l29.297,0.078l0,0h0.053h0.054l0,0l18.193-0.049l9.245-0.024l1.858-0.005
			C359.494,200.132,360.96,199.193,356.028,196.029z"/>
	</g>
	<polygon fill="#90A5A2" points="331.277,180.661 346.97,200.603 355.607,200.532 332.737,180.661 	"/>
	<rect x="331.482" y="166.754" fill="#90A5A2" width="1.141" height="13.907"/>
</g>
<g>
	<g>
		<rect x="68.859" y="326.756" fill="#72524E" width="84.047" height="35.693"/>
		<circle opacity="0.3" fill="#3B2B23" cx="110.231" cy="334.889" r="3.252"/>
		<rect x="68.859" y="363.771" fill="#2E3449" width="84.047" height="35.056"/>
		<circle opacity="0.3" fill="#0C0C0C" cx="110.231" cy="370.617" r="3.252"/>
		<circle fill="#12182A" cx="110.883" cy="369.941" r="3.252"/>
		<circle fill="#3B2B23" cx="110.882" cy="334.151" r="3.252"/>
		<rect x="66.136" y="325.476" fill="#3B4963" width="2.53" height="75.176"/>
		<rect x="153.311" y="325.379" fill="#3B4963" width="2.086" height="73.865"/>
		<rect x="66.136" y="399.241" fill="#36425E" width="89.261" height="3.812"/>
		<rect x="68.859" y="362.449" fill="#0C0C0C" width="84.047" height="1.322"/>
		<rect x="68.859" y="398.65" fill="#0C0C0C" width="84.047" height="0.594"/>
		<rect x="68.859" y="325.99" fill="#0C0C0C" width="84.047" height="0.766"/>
		<rect x="152.634" y="325.99" fill="#232323" width="0.676" height="73.254"/>
		<rect x="68.596" y="325.893" fill="#232323" width="0.412" height="73.352"/>
		<rect x="66.136" y="323.482" fill="#806762" width="90.273" height="2.489"/>
		<polygon fill="#B3A49C" points="156.409,323.482 66.642,323.482 68.889,321.38 153.607,321.38 		"/>
		<polygon opacity="0.2" fill="#665F52" points="149.059,460.764 73.811,460.765 80.755,436.835 137.783,436.835 		"/>
		<path fill="#806762" d="M75.248,418.347l-5.607,40.727c0,0,0.233,1.044,2.451,1.51c2.218,0.468,2.838-0.06,3.305-0.643
			c0.381-0.476,7.493-38.021,10.103-51.846L75.248,418.347z"/>
		<path fill="#6D5854" d="M86.45,403.053h-9.097l-2.105,15.294L85.5,408.095C86.089,404.97,86.45,403.053,86.45,403.053z"/>
		<path fill="#604C49" d="M137.926,403.053l4.983,36.191c0,0-0.151,0.673-1.583,0.975c-1.433,0.301-1.834-0.04-2.136-0.417
			c-0.301-0.376-7.139-36.749-7.139-36.749H137.926z"/>
		<path fill="#6D5854" d="M145.194,403.053h-9.097c0,0,0.427,2.275,1.114,5.91l10.2,10.201L145.194,403.053z"/>
		<path fill="#806762" d="M147.412,419.164l-10.2-10.201c2.73,14.465,9.565,50.511,9.938,50.978
			c0.467,0.584,1.088,1.111,3.306,0.644c2.217-0.466,2.451-1.508,2.451-1.508L147.412,419.164z"/>
	</g>
	<g>
		<path fill="#B9B1AD" d="M124.122,237.375c-4.048-0.221-8.447-0.379-12.745-0.379c-14.22,0-30.779,1.727-30.779,1.727v44.265
			c0,0,21.996,0.632,30.779,0.741c3.223,0.04,7.708-0.034,12.213-0.149C128.966,268.988,126.837,252.762,124.122,237.375z"/>
		<path fill="#ADA5A1" d="M140.935,238.723c0,0-7.468-0.841-16.813-1.348c2.716,15.387,4.845,31.613-0.532,46.204
			c8.638-0.222,17.346-0.592,17.346-0.592V238.723z"/>
		<path fill="#797572" d="M140.935,282.987c0-0.229-13.507-0.413-30.169-0.413s-30.169,0.185-30.169,0.413
			c0,0.228,13.507,1.153,30.169,1.153S140.935,283.215,140.935,282.987z"/>
		<rect x="109.76" y="282.574" fill="#9B9EA0" width="3.851" height="4.616"/>
		<g>
			<path fill="#B7CFCD" d="M113.664,290.588c-1.387-0.465-1.477-3.088-1.482-5.044h-0.495l-4.839-0.001c0,0,1.153,2.721,0,3.791
				c-1.154,1.071-9.811,7.173-12.035,9.562c-2.227,2.39-4.78,10.634-2.144,15.414c2.638,4.78,6.512,6.512,8.242,7.419
				c1.489,0.779,8.766,0.767,10.775,0.747c1.657,0.017,6.905,0.028,9.522-0.409C130.009,312.209,124.128,298.197,113.664,290.588z"
				/>
			<path fill="#A9BFBC" d="M128.559,298.896c-2.227-2.39-10.881-8.491-12.035-9.562c-1.153-1.07,0-3.791,0-3.791l-4.343,0.001
				c0.006,1.956,0.096,4.579,1.482,5.044c10.465,7.609,16.346,21.621,7.545,31.479c0.553-0.091,0.991-0.202,1.25-0.338
				c1.73-0.907,5.605-2.639,8.242-7.419C133.339,309.53,130.785,301.286,128.559,298.896z"/>
		</g>
	</g>
</g>
<g>
	<ellipse opacity="0.2" fill="#665F52" cx="544.316" cy="458.677" rx="36.421" ry="1.945"/>
	<g>
		<g>
			<polygon fill="#998F82" points="527.637,388.056 517.526,388.056 516.023,399.108 526.599,392.966 			"/>
			<polygon fill="#998F82" points="571.329,388.056 561.219,388.056 562.503,394.129 572.885,399.496 			"/>
			<path fill="#998F82" d="M521.637,400.925v2.371h5.496c0.654-0.741,1.256-1.476,1.592-2.371H521.637z"/>
			<rect x="509.692" y="385.792" fill="#A3998D" width="22.624" height="5.008"/>
			<rect x="532.316" y="385.792" fill="#B1A696" width="41.992" height="5.008"/>
			<path fill="#998F82" d="M588.034,385.792h-13.726v5.008h13.726c1.516,0,2.744-1.121,2.744-2.504S589.55,385.792,588.034,385.792z
				"/>
			<path fill="#998F82" d="M502.299,385.792c-1.515,0-2.743,1.121-2.743,2.504s1.229,2.504,2.743,2.504h7.394v-5.008H502.299z"/>
			<polygon fill="#998F82" points="568.696,400.925 560.285,400.925 561.498,403.296 568.696,403.296 			"/>
			<polygon fill="#B1A696" points="516.023,399.108 507.921,458.677 512.724,458.677 526.599,392.966 			"/>
			<polygon fill="#B1A696" points="580.935,458.677 572.885,399.496 562.503,394.129 576.132,458.677 			"/>
			<polygon fill="#B1A696" points="560.285,400.925 528.725,400.925 527.133,403.296 561.498,403.296 			"/>
		</g>
		<g>
			<g>
				<g>
					<path fill="#FFFFFF" d="M565.456,376.713h-42.135c-0.309,0-0.609,0.015-0.904,0.038c1.097,1.017,1.791,2.545,1.791,4.254
						c0,1.708-0.694,3.235-1.791,4.254c0.295,0.022,0.596,0.037,0.904,0.037h42.135c2.944,0,5.662-1.109,5.662-2.477v-3.63
						C571.118,377.822,568.4,376.713,565.456,376.713z"/>
					<path fill="#9D9FAE" d="M565.622,376.347h-42.135c-0.505,0-0.996,0.034-1.465,0.09c0.241,0.208,0.465,0.435,0.672,0.675
						c0.259-0.021,0.523-0.033,0.793-0.033h42.135c2.662,0,4.998,0.986,4.998,2.111v3.63c0,1.125-2.336,2.11-4.998,2.11h-42.135
						c-0.283,0-0.559-0.013-0.828-0.034c-0.211,0.239-0.438,0.463-0.683,0.67c0.483,0.061,0.988,0.095,1.511,0.095h42.135
						c3.432,0,6.33-1.301,6.33-2.841v-3.63C571.952,377.648,569.054,376.347,565.622,376.347z"/>
				</g>
				<polygon opacity="0.6" fill="#CECFD1" points="547.953,379.863 551.617,379.863 551.183,382.917 				"/>
				<polygon fill="#CDCBC4" points="547.953,379.863 551.617,379.863 551.617,382.146 				"/>
			</g>
			<path opacity="0.6" fill="#CECFD1" d="M522.77,377.111l4.438,0.761c0,0,39.259-0.194,40.697,1.128
				c1.037,0.954,1.324,3.065,0.678,4.638c-0.247,0.604-1.543,0.788-1.865,1.244c0,0,2.427-0.261,3.544-1.128
				c0.749-0.58,0.407-1.371,0.42-2.523c0.007-0.958,0.289-1.855-0.205-2.599c-0.494-0.745-1.823-1.379-4.311-1.545L522.77,377.111z"
				/>
		</g>
		<g>
			<g>
				<g>
					<path fill="#FFFFFF" d="M566.557,367.31h-39.568c-0.29,0-0.572,0.015-0.849,0.038c1.029,1.017,1.682,2.545,1.682,4.254
						c0,1.708-0.652,3.235-1.682,4.254c0.276,0.022,0.559,0.037,0.849,0.037h39.568c2.765,0,5.317-1.109,5.317-2.477v-3.63
						C571.874,368.419,569.321,367.31,566.557,367.31z"/>
					<path fill="#C1A24C" d="M566.713,366.943h-39.568c-0.475,0-0.936,0.034-1.376,0.09c0.227,0.208,0.437,0.435,0.631,0.675
						c0.243-0.021,0.492-0.033,0.745-0.033h39.568c2.5,0,4.693,0.986,4.693,2.111v3.63c0,1.125-2.193,2.11-4.693,2.11h-39.568
						c-0.267,0-0.524-0.013-0.778-0.034c-0.197,0.239-0.411,0.463-0.641,0.67c0.454,0.061,0.928,0.095,1.419,0.095h39.568
						c3.223,0,5.944-1.301,5.944-2.841v-3.63C572.657,368.245,569.936,366.943,566.713,366.943z"/>
				</g>
				<polygon opacity="0.6" fill="#CECFD1" points="550.12,370.46 553.561,370.46 553.152,373.514 				"/>
				<polygon fill="#CDCBC4" points="550.12,370.46 553.561,370.46 553.561,372.742 				"/>
			</g>
			<path opacity="0.6" fill="#CECFD1" d="M526.471,367.708l4.167,0.761c0,0,36.867-0.194,38.218,1.128
				c0.975,0.954,1.244,3.065,0.637,4.638c-0.232,0.604-1.449,0.788-1.752,1.244c0,0,2.279-0.261,3.328-1.128
				c0.703-0.58,0.383-1.371,0.395-2.523c0.007-0.958,0.271-1.855-0.192-2.599c-0.464-0.745-1.712-1.379-4.048-1.545L526.471,367.708
				z"/>
		</g>
		<g>
			<path fill="#FFFFFF" d="M554.878,343.349c-0.532-2.655-2.875-4.654-5.687-4.654c-2.974,0-5.421,2.238-5.758,5.122
				C547.361,345.44,551.269,344.638,554.878,343.349z"/>
			<path fill="#F7F5ED" d="M543.434,343.816c-0.026,0.223-0.043,0.448-0.043,0.679v17.926c0,3.203,11.602,3.203,11.602,0v-17.926
				c0-0.393-0.04-0.776-0.114-1.146C551.269,344.638,547.361,345.44,543.434,343.816z"/>
			<g>
				<rect x="548.697" y="334.794" fill="#C1A24C" width="0.987" height="3.9"/>
			</g>
			<path fill="#183542" d="M554.437,363.308h-10.49c-0.907,0-1.644,0.696-1.725,1.582h13.938
				C556.079,364.004,555.342,363.308,554.437,363.308z"/>
			<path fill="#0F2B3A" d="M542.222,364.89c-0.005,0.053-0.016,0.104-0.016,0.158c0,0.96,0.779,1.739,1.74,1.739h10.49
				c0.96,0,1.739-0.779,1.739-1.739c0-0.055-0.011-0.105-0.016-0.158H542.222z"/>
		</g>
	</g>
</g>
</svg>
