<?xml version="1.0" encoding="utf-8"?>
<!-- Generator: Adobe Illustrator 16.0.0, SVG Export Plug-In . SVG Version: 6.00 Build 0)  -->
<!DOCTYPE svg PUBLIC "-//W3C//DTD SVG 1.1//EN" "http://www.w3.org/Graphics/SVG/1.1/DTD/svg11.dtd">
<svg version="1.1" id="Layer_1" xmlns="http://www.w3.org/2000/svg" xmlns:xlink="http://www.w3.org/1999/xlink" x="0px" y="0px"
	 width="720px" height="503.999px" viewBox="0 0 720 503.999" enable-background="new 0 0 720 503.999" xml:space="preserve">
<symbol  id="New_Symbol" viewBox="-0.763 -0.763 1.526 1.525">
	<path fill="#FFFFFF" d="M0.763,0c0-0.421-0.342-0.762-0.763-0.762S-0.763-0.421-0.763,0S-0.421,0.763,0,0.763S0.763,0.42,0.763,0z"
		/>
</symbol>
<rect fill="#EEEDE8" width="720" height="331.57"/>
<rect y="321.634" fill="#D2CFCB" width="720" height="182.448"/>
<rect y="321.634" fill="#FFFFFF" width="720" height="14.878"/>
<polygon fill="#F1EEEB" points="115.625,408.421 62.789,481.992 625.658,481.992 558.804,409.451 "/>
<g>
	<g>
		<g>
			<polygon fill="none" points="86.473,362.165 88.415,358.8 86.473,355.436 84.53,358.8 			"/>
		</g>
		<g>
			<polygon fill="none" points="76.393,379.624 78.335,376.259 76.393,372.895 74.45,376.259 			"/>
		</g>
		<g>
			<polygon fill="none" points="83.663,384.488 85.896,380.624 83.663,376.759 79.202,376.759 76.97,380.624 79.202,384.488 			"/>
		</g>
		<g>
			<polygon fill="none" points="83.663,375.759 85.896,371.895 83.663,368.029 79.202,368.029 76.97,371.895 79.202,375.759 			"/>
		</g>
		<g>
			<polygon fill="none" points="76.393,388.354 78.335,384.988 76.393,381.623 74.45,384.988 			"/>
		</g>
		<g>
			<polygon fill="none" points="76.393,370.895 78.335,367.529 76.393,364.164 74.45,367.529 			"/>
		</g>
		<g>
			<polygon fill="none" points="76.393,362.165 78.335,358.8 76.393,355.436 74.45,358.8 			"/>
		</g>
		<g>
			<polygon fill="none" points="83.663,393.218 85.896,389.354 83.663,385.488 79.202,385.488 76.97,389.354 79.202,393.218 			"/>
		</g>
		<g>
			<polygon fill="none" points="83.663,367.029 85.896,363.165 83.663,359.3 79.202,359.3 76.97,363.165 79.202,367.029 			"/>
		</g>
		<g>
			<polygon fill="none" points="86.473,370.895 88.415,367.529 86.473,364.164 84.53,367.529 			"/>
		</g>
		<g>
			<polygon fill="none" points="89.282,350.57 87.05,354.436 89.282,358.3 93.743,358.3 95.976,354.436 93.743,350.57 			"/>
		</g>
		<g>
			<polygon fill="none" points="89.282,359.3 87.05,363.165 89.282,367.029 93.743,367.029 95.976,363.165 93.743,359.3 			"/>
		</g>
		<g>
			<polygon fill="none" points="96.553,364.164 94.61,367.529 96.553,370.895 98.495,367.529 			"/>
		</g>
		<g>
			<polygon fill="none" points="89.282,368.029 87.05,371.895 89.282,375.759 93.743,375.759 95.976,371.895 93.743,368.029 			"/>
		</g>
		<g>
			<polygon fill="none" points="86.473,381.623 84.53,384.988 86.473,388.354 88.415,384.988 			"/>
		</g>
		<g>
			<polygon fill="none" points="96.553,355.436 94.61,358.8 96.553,362.165 98.495,358.8 			"/>
		</g>
		<g>
			<polygon fill="none" points="93.743,393.218 95.976,389.354 93.743,385.488 89.282,385.488 87.05,389.354 89.282,393.218 			"/>
		</g>
		<g>
			<polygon fill="none" points="96.553,381.623 94.61,384.988 96.553,388.354 98.495,384.988 			"/>
		</g>
		<g>
			<polygon fill="none" points="89.282,376.759 87.05,380.624 89.282,384.488 93.743,384.488 95.976,380.624 93.743,376.759 			"/>
		</g>
		<g>
			<polygon fill="none" points="96.553,372.895 94.61,376.259 96.553,379.624 98.495,376.259 			"/>
		</g>
		<g>
			<polygon fill="none" points="86.473,379.624 88.415,376.259 86.473,372.895 84.53,376.259 			"/>
		</g>
		<g>
			<polygon fill="none" points="65.735,345.706 63.503,341.841 59.042,341.841 57.511,344.492 58.424,348.501 59.042,349.57 
				63.503,349.57 			"/>
		</g>
		<g>
			<polygon fill="none" points="73.583,393.218 75.815,389.354 73.583,385.488 69.122,385.488 67.496,388.305 68.285,391.77 
				69.122,393.218 			"/>
		</g>
		<g>
			<polygon fill="none" points="66.312,372.895 64.643,375.786 64.998,377.348 66.312,379.624 68.255,376.259 			"/>
		</g>
		<g>
			<polygon fill="none" points="103.823,341.841 99.362,341.841 97.13,345.706 99.362,349.57 103.823,349.57 106.056,345.706 			"/>
		</g>
		<g>
			<polygon fill="none" points="75.815,345.706 73.583,341.841 69.122,341.841 66.89,345.706 69.122,349.57 73.583,349.57 			"/>
		</g>
		<g>
			<polygon fill="none" points="99.362,385.488 97.13,389.354 99.362,393.218 103.823,393.218 104.958,391.254 105.579,388.527 
				103.823,385.488 			"/>
		</g>
		<g>
			<polygon fill="none" points="83.663,358.3 85.896,354.436 83.663,350.57 79.202,350.57 76.97,354.436 79.202,358.3 			"/>
		</g>
		<g>
			<polygon fill="none" points="93.743,341.841 89.282,341.841 87.05,345.706 89.282,349.57 93.743,349.57 95.976,345.706 			"/>
		</g>
		<g>
			<polygon fill="none" points="104.69,376.259 106.633,379.624 108.244,376.834 108.432,376.01 106.633,372.895 			"/>
		</g>
		<g>
			<polygon fill="none" points="109.442,341.841 107.21,345.706 109.442,349.57 113.903,349.57 114.817,347.987 115.563,344.715 
				113.903,341.841 			"/>
		</g>
		<g>
			<polygon fill="none" points="69.122,333.111 66.89,336.977 69.122,340.841 73.583,340.841 75.815,336.977 73.583,333.111 			"/>
		</g>
		<g>
			<polygon fill="none" points="79.202,333.111 76.97,336.977 79.202,340.841 83.663,340.841 85.896,336.977 83.663,333.111 			"/>
		</g>
		<g>
			<polygon fill="none" points="76.393,344.706 78.335,341.341 76.393,337.977 74.45,341.341 			"/>
		</g>
		<g>
			<polygon fill="none" points="85.896,345.706 83.663,341.841 79.202,341.841 76.97,345.706 79.202,349.57 83.663,349.57 			"/>
		</g>
		<g>
			<polygon fill="none" points="78.335,350.07 76.393,346.705 74.45,350.07 76.393,353.436 			"/>
		</g>
		<g>
			<polygon fill="none" points="88.415,350.07 86.473,346.705 84.53,350.07 86.473,353.436 			"/>
		</g>
		<g>
			<polygon fill="none" points="96.553,337.977 94.61,341.341 96.553,344.706 98.495,341.341 			"/>
		</g>
		<g>
			<polygon fill="none" points="86.473,344.706 88.415,341.341 86.473,337.977 84.53,341.341 			"/>
		</g>
		<g>
			<polygon fill="none" points="89.282,333.111 87.05,336.977 89.282,340.841 93.743,340.841 95.976,336.977 93.743,333.111 			"/>
		</g>
		<g>
			<polygon fill="none" points="66.312,344.706 68.255,341.341 66.312,337.977 64.37,341.341 			"/>
		</g>
		<g>
			<polygon fill="none" points="58.176,332.611 54.803,332.611 55.758,336.8 			"/>
		</g>
		<g>
			<polygon fill="none" points="106.633,335.977 108.576,332.611 104.689,332.611 			"/>
		</g>
		<g>
			<polygon fill="none" points="65.735,354.436 63.503,350.57 59.042,350.57 58.938,350.752 60.657,358.3 63.503,358.3 			"/>
		</g>
		<g>
			<polygon fill="none" points="55.891,337.384 57.184,343.059 58.175,341.341 			"/>
		</g>
		<g>
			<polygon fill="none" points="113.903,333.111 109.442,333.111 107.21,336.977 109.442,340.841 113.903,340.841 116.136,336.977 
							"/>
		</g>
		<g>
			<polygon fill="none" points="99.362,359.3 97.13,363.165 99.362,367.029 103.823,367.029 106.056,363.165 103.823,359.3 			"/>
		</g>
		<g>
			<polygon fill="none" points="106.633,355.436 104.69,358.8 106.633,362.165 108.575,358.8 			"/>
		</g>
		<g>
			<polygon fill="none" points="65.735,363.165 63.503,359.3 60.885,359.3 62.646,367.029 63.503,367.029 			"/>
		</g>
		<g>
			<polygon fill="none" points="99.362,350.57 97.13,354.436 99.362,358.3 103.823,358.3 106.056,354.436 103.823,350.57 			"/>
		</g>
		<g>
			<polygon fill="none" points="106.633,346.706 104.69,350.07 106.633,353.436 108.575,350.07 			"/>
		</g>
		<g>
			<polygon fill="none" points="109.442,350.57 107.21,354.436 109.442,358.3 112.468,358.3 114.137,350.975 113.903,350.57 			"/>
		</g>
		<g>
			<polygon fill="none" points="63.503,368.029 62.875,368.029 64.315,374.352 65.735,371.895 			"/>
		</g>
		<g>
			<polygon fill="none" points="107.21,363.165 109.442,367.029 110.479,367.029 112.24,359.3 109.442,359.3 			"/>
		</g>
		<g>
			<polygon fill="none" points="106.633,364.165 104.69,367.529 106.633,370.895 108.575,367.529 			"/>
		</g>
		<g>
			<polygon fill="none" points="117.29,336.977 114.771,341.341 115.891,343.281 118.322,332.611 114.77,332.611 			"/>
		</g>
		<g>
			<polygon fill="none" points="96.553,346.705 94.61,350.07 96.553,353.436 98.495,350.07 			"/>
		</g>
		<g>
			<polygon fill="none" points="66.312,381.624 66.069,382.045 67.169,386.87 68.255,384.988 			"/>
		</g>
		<g>
			<polygon fill="none" points="107.21,371.895 108.759,374.575 110.25,368.029 109.442,368.029 			"/>
		</g>
		<g>
			<polygon fill="none" points="107.332,380.835 107.49,380.138 107.21,380.624 			"/>
		</g>
		<g>
			<polygon fill="none" points="104.689,384.988 105.905,387.094 107.005,382.269 106.633,381.624 			"/>
		</g>
		<g>
			<polygon fill="none" points="59.042,340.841 63.503,340.841 65.735,336.977 63.503,333.111 59.042,333.111 56.81,336.977 			"/>
		</g>
		<g>
			<polygon fill="none" points="99.362,368.029 97.13,371.895 99.362,375.759 103.823,375.759 106.056,371.895 103.823,368.029 			
				"/>
		</g>
		<g>
			<polygon fill="none" points="68.255,350.07 66.312,346.706 64.37,350.07 66.312,353.436 			"/>
		</g>
		<g>
			<polygon fill="none" points="76.393,335.977 78.336,332.611 74.449,332.611 			"/>
		</g>
		<g>
			<polygon fill="none" points="73.583,358.3 75.815,354.436 73.583,350.57 69.122,350.57 66.89,354.436 69.122,358.3 			"/>
		</g>
		<g>
			<polygon fill="none" points="66.312,335.977 68.256,332.611 64.369,332.611 			"/>
		</g>
		<g>
			<polygon fill="none" points="99.362,333.111 97.13,336.977 99.362,340.841 103.823,340.841 106.056,336.977 103.823,333.111 			
				"/>
		</g>
		<g>
			<polygon fill="none" points="86.473,335.977 88.416,332.611 84.529,332.611 			"/>
		</g>
		<g>
			<polygon fill="none" points="106.633,337.977 104.69,341.341 106.633,344.706 108.575,341.341 			"/>
		</g>
		<g>
			<polygon fill="none" points="96.553,335.977 98.496,332.611 94.609,332.611 			"/>
		</g>
		<g>
			<polygon fill="none" points="66.312,362.165 68.255,358.8 66.312,355.436 64.37,358.8 			"/>
		</g>
		<g>
			<polygon fill="none" points="86.473,390.354 84.53,393.718 88.415,393.718 			"/>
		</g>
		<g>
			<polygon fill="none" points="96.553,390.354 94.61,393.718 98.495,393.718 			"/>
		</g>
		<g>
			<polygon fill="none" points="76.393,390.354 74.45,393.718 78.335,393.718 			"/>
		</g>
		<g>
			<polygon fill="none" points="103.823,376.759 99.362,376.759 97.13,380.624 99.362,384.488 103.823,384.488 106.056,380.624 			
				"/>
		</g>
		<g>
			<polygon fill="none" points="73.583,367.029 75.815,363.165 73.583,359.3 69.122,359.3 66.89,363.165 69.122,367.029 			"/>
		</g>
		<g>
			<polygon fill="none" points="66.312,370.895 68.255,367.529 66.312,364.165 64.37,367.529 			"/>
		</g>
		<g>
			<polygon fill="none" points="73.583,375.759 75.815,371.895 73.583,368.029 69.122,368.029 66.89,371.895 69.122,375.759 			"/>
		</g>
		<g>
			<polygon fill="none" points="73.583,384.488 75.815,380.624 73.583,376.759 69.122,376.759 66.89,380.624 69.122,384.488 			"/>
		</g>
		<g>
			<path d="M120.312,330.611h-67.75v2h1.215l2.672,11.721l1.034,4.541l0.392,1.717l0.327,1.435l1.43,6.275l0.229,1l1.761,7.729
				l0.229,1l1.73,7.596l0.031,0.134l0.228,1l0.219,0.961l0.949,4.165l0.327,1.434l1.1,4.825l0.91,3.996l0.504,1.994v0.834h37.25
				v-0.123l0.065,0.007l0.735-3.227l0.742-3.258l1.1-4.825l0.327-1.435l1.117-4.902l0.102-0.446l0.228-1l1.762-7.729l0.229-1
				l1.761-7.729l0.229-1l1.379-6.052l0.327-1.435l0.56-2.455l0.866-3.804l2.723-11.943h0.965V330.611z M114.817,347.987
				l-0.914,1.583h-4.461l-2.232-3.864l2.232-3.865h4.461l1.66,2.874L114.817,347.987z M108.244,376.834l-1.611,2.79l-1.942-3.365
				l1.942-3.364l1.799,3.115L108.244,376.834z M104.958,391.254l-1.135,1.964h-4.461l-2.232-3.864l2.232-3.865h4.461l1.756,3.039
				L104.958,391.254z M67.496,388.305l1.626-2.816h4.461l2.232,3.865l-2.232,3.864h-4.461l-0.837-1.448L67.496,388.305z
				 M64.998,377.348l-0.355-1.562l1.67-2.892l1.942,3.364l-1.942,3.365L64.998,377.348z M58.424,348.501l-0.913-4.009l1.531-2.651
				h4.461l2.232,3.865l-2.232,3.864h-4.461L58.424,348.501z M103.823,349.57h-4.461l-2.232-3.864l2.232-3.865h4.461l2.232,3.865
				L103.823,349.57z M66.89,345.706l2.232-3.865h4.461l2.232,3.865l-2.232,3.864h-4.461L66.89,345.706z M93.743,349.57h-4.461
				l-2.232-3.864l2.232-3.865h4.461l2.232,3.865L93.743,349.57z M76.97,345.706l2.232-3.865h4.461l2.232,3.865l-2.232,3.864h-4.461
				L76.97,345.706z M86.473,346.705l1.942,3.365l-1.942,3.365l-1.942-3.365L86.473,346.705z M94.61,341.341l1.942-3.364l1.942,3.364
				l-1.942,3.365L94.61,341.341z M93.743,340.841h-4.461l-2.232-3.864l2.232-3.865h4.461l2.232,3.865L93.743,340.841z
				 M88.415,341.341l-1.942,3.365l-1.942-3.365l1.942-3.364L88.415,341.341z M83.663,340.841h-4.461l-2.232-3.864l2.232-3.865h4.461
				l2.232,3.865L83.663,340.841z M78.335,341.341l-1.942,3.365l-1.942-3.365l1.942-3.364L78.335,341.341z M73.583,340.841h-4.461
				l-2.232-3.864l2.232-3.865h4.461l2.232,3.865L73.583,340.841z M68.255,341.341l-1.942,3.365l-1.942-3.365l1.942-3.364
				L68.255,341.341z M76.393,346.705l1.942,3.365l-1.942,3.365l-1.942-3.365L76.393,346.705z M79.202,350.57h4.461l2.232,3.865
				l-2.232,3.864h-4.461l-2.232-3.864L79.202,350.57z M86.473,355.436l1.942,3.364l-1.942,3.365L84.53,358.8L86.473,355.436z
				 M78.335,358.8l-1.942,3.365L74.45,358.8l1.942-3.364L78.335,358.8z M79.202,359.3h4.461l2.232,3.865l-2.232,3.864h-4.461
				l-2.232-3.864L79.202,359.3z M86.473,364.164l1.942,3.365l-1.942,3.365l-1.942-3.365L86.473,364.164z M78.335,367.529
				l-1.942,3.365l-1.942-3.365l1.942-3.365L78.335,367.529z M79.202,368.029h4.461l2.232,3.865l-2.232,3.864h-4.461l-2.232-3.864
				L79.202,368.029z M86.473,372.895l1.942,3.364l-1.942,3.365l-1.942-3.365L86.473,372.895z M78.335,376.259l-1.942,3.365
				l-1.942-3.365l1.942-3.364L78.335,376.259z M79.202,376.759h4.461l2.232,3.865l-2.232,3.864h-4.461l-2.232-3.864L79.202,376.759z
				 M78.335,384.988l-1.942,3.365l-1.942-3.365l1.942-3.365L78.335,384.988z M79.202,385.488h4.461l2.232,3.865l-2.232,3.864h-4.461
				l-2.232-3.864L79.202,385.488z M84.53,384.988l1.942-3.365l1.942,3.365l-1.942,3.365L84.53,384.988z M89.282,385.488h4.461
				l2.232,3.865l-2.232,3.864h-4.461l-2.232-3.864L89.282,385.488z M94.61,384.988l1.942-3.365l1.942,3.365l-1.942,3.365
				L94.61,384.988z M93.743,384.488h-4.461l-2.232-3.864l2.232-3.865h4.461l2.232,3.865L93.743,384.488z M94.61,376.259l1.942-3.364
				l1.942,3.364l-1.942,3.365L94.61,376.259z M93.743,375.759h-4.461l-2.232-3.864l2.232-3.865h4.461l2.232,3.865L93.743,375.759z
				 M94.61,367.529l1.942-3.365l1.942,3.365l-1.942,3.365L94.61,367.529z M93.743,367.029h-4.461l-2.232-3.864l2.232-3.865h4.461
				l2.232,3.865L93.743,367.029z M94.61,358.8l1.942-3.364l1.942,3.364l-1.942,3.365L94.61,358.8z M93.743,358.3h-4.461
				l-2.232-3.864l2.232-3.865h4.461l2.232,3.865L93.743,358.3z M94.61,350.07l1.942-3.365l1.942,3.365l-1.942,3.365L94.61,350.07z
				 M104.69,341.341l1.942-3.364l1.942,3.364l-1.942,3.365L104.69,341.341z M103.823,340.841h-4.461l-2.232-3.864l2.232-3.865h4.461
				l2.232,3.865L103.823,340.841z M96.553,335.977l-1.943-3.365h3.887L96.553,335.977z M86.473,335.977l-1.943-3.365h3.887
				L86.473,335.977z M76.393,335.977l-1.943-3.365h3.887L76.393,335.977z M66.312,335.977l-1.943-3.365h3.887L66.312,335.977z
				 M63.503,333.111l2.232,3.865l-2.232,3.864h-4.461l-2.232-3.864l2.232-3.865H63.503z M66.312,346.706l1.942,3.364l-1.942,3.365
				l-1.942-3.365L66.312,346.706z M69.122,350.57h4.461l2.232,3.865l-2.232,3.864h-4.461l-2.232-3.864L69.122,350.57z M68.255,358.8
				l-1.942,3.365L64.37,358.8l1.942-3.364L68.255,358.8z M69.122,359.3h4.461l2.232,3.865l-2.232,3.864h-4.461l-2.232-3.864
				L69.122,359.3z M68.255,367.529l-1.942,3.365l-1.942-3.365l1.942-3.364L68.255,367.529z M69.122,368.029h4.461l2.232,3.865
				l-2.232,3.864h-4.461l-2.232-3.864L69.122,368.029z M69.122,376.759h4.461l2.232,3.865l-2.232,3.864h-4.461l-2.232-3.864
				L69.122,376.759z M76.393,390.354l1.942,3.364H74.45L76.393,390.354z M86.473,390.354l1.942,3.364H84.53L86.473,390.354z
				 M96.553,390.354l1.942,3.364H94.61L96.553,390.354z M103.823,384.488h-4.461l-2.232-3.864l2.232-3.865h4.461l2.232,3.865
				L103.823,384.488z M103.823,375.759h-4.461l-2.232-3.864l2.232-3.865h4.461l2.232,3.865L103.823,375.759z M104.69,367.529
				l1.942-3.364l1.942,3.364l-1.942,3.365L104.69,367.529z M103.823,367.029h-4.461l-2.232-3.864l2.232-3.865h4.461l2.232,3.865
				L103.823,367.029z M104.69,358.8l1.942-3.364l1.942,3.364l-1.942,3.365L104.69,358.8z M103.823,358.3h-4.461l-2.232-3.864
				l2.232-3.865h4.461l2.232,3.865L103.823,358.3z M104.69,350.07l1.942-3.364l1.942,3.364l-1.942,3.365L104.69,350.07z
				 M113.903,340.841h-4.461l-2.232-3.864l2.232-3.865h4.461l2.232,3.865L113.903,340.841z M106.633,335.977l-1.943-3.365h3.887
				L106.633,335.977z M58.176,332.611l-2.418,4.188l-0.955-4.188H58.176z M55.891,337.384l2.284,3.957l-0.991,1.718L55.891,337.384z
				 M58.938,350.752l0.104-0.182h4.461l2.232,3.865l-2.232,3.864h-2.846L58.938,350.752z M60.885,359.3h2.618l2.232,3.865
				l-2.232,3.864h-0.856L60.885,359.3z M62.875,368.029h0.628l2.232,3.865l-1.42,2.457L62.875,368.029z M66.069,382.045l0.243-0.421
				l1.942,3.364l-1.086,1.882L66.069,382.045z M105.905,387.094l-1.216-2.105l1.943-3.364l0.372,0.645L105.905,387.094z
				 M107.332,380.835l-0.122-0.211l0.28-0.486L107.332,380.835z M108.759,374.575l-1.549-2.681l2.232-3.865h0.808L108.759,374.575z
				 M110.479,367.029h-1.036l-2.232-3.864l2.232-3.865h2.798L110.479,367.029z M112.468,358.3h-3.025l-2.232-3.864l2.232-3.865
				h4.461l0.233,0.404L112.468,358.3z M115.891,343.281l-1.12-1.94l2.52-4.364l-2.521-4.365h3.553L115.891,343.281z"/>
		</g>
	</g>
	<g>
		<path d="M86.46,332.904c-8.971,0-17.406-0.163-23.75-0.459c-10.188-0.476-10.188-1.011-10.188-1.482s0-1.007,10.188-1.482
			c6.345-0.296,14.779-0.459,23.75-0.459s17.406,0.163,23.751,0.459c10.188,0.476,10.188,1.011,10.188,1.482s0,1.007-10.188,1.482
			C103.866,332.741,95.431,332.904,86.46,332.904z M53.836,330.963c3.05,0.607,15.753,1.191,32.624,1.191s29.574-0.584,32.624-1.191
			c-3.05-0.607-15.753-1.191-32.624-1.191S56.886,330.355,53.836,330.963z"/>
	</g>
</g>
<g>
	<path fill="#082021" d="M159.496,416.545c0,1.93-2.41,3.494-5.383,3.494l0,0c-2.973,0-5.383-1.564-5.383-3.494v-27.517
		c0-1.93,2.411-3.494,5.383-3.494l0,0c2.973,0,5.383,1.564,5.383,3.494V416.545z"/>
	<path fill="#082021" d="M536.955,416.545c0,1.93-2.41,3.494-5.383,3.494l0,0c-2.974,0-5.384-1.564-5.384-3.494v-27.517
		c0-1.93,2.41-3.494,5.384-3.494l0,0c2.973,0,5.383,1.564,5.383,3.494V416.545z"/>
	<rect x="144.792" y="362.62" fill="#213535" width="398.968" height="40.167"/>
	<polygon fill="#10292A" points="158.586,289.937 159.938,323.55 144.927,333.26 143.625,303.314 	"/>
	<path fill="#082021" d="M158.118,291.427c0.532,16.967,1.366,32.105,1.366,32.105h23.27
		C170.609,316.755,161.27,306.18,158.118,291.427z"/>
	<path fill="#2F484B" d="M341.716,246.479c-3.505-3.904-178.188-5.771-182.231-1.031c-2.207,2.587-2.005,25.601-1.366,45.978
		c3.151,14.753,12.491,25.328,24.636,32.105h161.11C343.864,323.532,345.22,250.384,341.716,246.479z"/>
	<polygon fill="#7A9495" points="134.481,290.397 158.086,290.397 143.845,303.314 112.848,303.314 	"/>
	<rect x="142.771" y="356.061" fill="#071E20" width="200.567" height="7.908"/>
	<path fill="#7A9495" d="M343.864,323.532H161.794c-7.171,0-12.549,3.203-15.793,8.087h197.336L343.864,323.532z"/>
	<path fill="#284443" d="M112.824,303.314c-3.484,2.855-3.48,7.936-3.48,15.944v79.649c0,1.33,0.132,2.627,0.377,3.879h34.829
		c0.245-1.252,0.377-2.549,0.377-3.879v-79.649c-0.085-8.946-0.529-12.969-1.093-15.944H112.824z"/>
	<polygon fill="#10292A" points="527.541,289.937 526.188,323.55 541.199,333.26 542.502,303.314 	"/>
	<path fill="#082021" d="M528.009,291.427c-0.531,16.967-1.366,32.105-1.366,32.105h-23.27
		C515.518,316.755,524.857,306.18,528.009,291.427z"/>
	<path fill="#2F484B" d="M343.429,246.334c3.505-3.904,179.262-5.592,183.306-0.851c2.207,2.587,2.005,25.601,1.367,45.979
		c-3.153,14.753-12.492,25.329-24.637,32.105H342.881C342.881,323.567,339.924,250.238,343.429,246.334z"/>
	<polygon fill="#7A9495" points="551.646,290.397 528.041,290.397 542.281,303.314 573.278,303.314 	"/>
	<path fill="#10292A" d="M145.779,326.723c0,0-7.141,9.862-5.973,18.331c1.085,7.873,3.681,13.458,7.673,15.095L145.779,326.723z"/>
	<rect x="342.79" y="356.061" fill="#071E20" width="200.567" height="7.908"/>
	<path fill="#284443" d="M573.304,303.314c3.482,2.855,3.479,7.936,3.479,15.944v79.649c0,1.33-0.132,2.627-0.378,3.879h-34.827
		c-0.247-1.252-0.379-2.549-0.379-3.879v-79.649c0.086-8.946,0.53-12.969,1.095-15.944H573.304z"/>
	<path fill="#10292A" d="M540.741,327.576c3.896,5.749,6.469,12.606,5.761,17.747c-1.086,7.873-3.467,13.188-7.46,14.825
		L540.741,327.576z"/>
	<path fill="#264141" d="M540.328,331.619c2.031,3.059,3.23,6.771,3.23,10.783c0,20.848-4.853,19.058-17.95,18.87H357.711
		c-14.719,0-15.793-0.53-15.793-19.588c0-4.013,0.311-8.576,1.074-10.065H540.328z"/>
	<path fill="#264141" d="M146.001,331.619c-2.031,3.059-3.231,6.771-3.231,10.783c0,20.848,4.853,19.058,17.95,18.87h167.897
		c14.719,0,15.793-0.53,15.793-19.588c0-4.013-0.311-8.576-1.074-10.065H146.001z"/>
	<path fill="#7A9495" d="M343.864,323.532h181.542c6.098,0,11.475,3.203,14.72,8.087H342.79L343.864,323.532z"/>
	<path fill="#10292A" d="M342.62,248.469c0,0-2.519,28.675-2.232,36.234c0.287,7.56,1.328,35.729,2.402,38.829h2.036
		c0,0,2.576-29.379,1.859-39.858C346.192,276.45,342.62,248.469,342.62,248.469L342.62,248.469z"/>
	<polygon fill="#071E20" points="343.713,358.438 343.128,358.892 342.54,358.412 342.54,331.619 343.713,331.619 	"/>
	<rect x="145.007" y="363.429" fill="#071E20" width="1.544" height="39.358"/>
	<rect x="539.65" y="363.429" fill="#071E20" width="1.48" height="39.358"/>
</g>
<g>
	<path fill="#37383F" d="M587.629,377.151h-2V231.953c0-20.162-2.305-33.81-7.046-41.727c-3.837-6.405-9.294-9.263-17.69-9.263
		c-0.009,0-0.016,0-0.024,0c-7.062,0.005-12.062,1.69-14.862,5.008c-3.085,3.655-2.367,8.142-2.359,8.187l-1.971,0.343
		c-0.038-0.219-0.899-5.41,2.778-9.793c3.194-3.807,8.717-5.74,16.412-5.745c0.009,0,0.018,0,0.026,0
		c9.058,0,15.224,3.253,19.406,10.236c4.933,8.235,7.33,22.22,7.33,42.754V377.151z"/>
</g>
<path fill="#292B30" d="M546.615,193.879c0,1.752-1.419,3.171-3.172,3.171h-1.289c-1.752,0-3.171-1.419-3.171-3.171l0,0
	c0-1.751,1.419-3.171,3.171-3.171h1.289C545.196,190.708,546.615,192.128,546.615,193.879L546.615,193.879z"/>
<g>
	<path fill="#37383F" d="M552.072,199.52c-4.111-5.192-5.288-5.192-9.411-5.192c-0.01,0-0.017,0.001-0.027,0.001
		c-0.007,0-0.018-0.001-0.025-0.001c-4.122,0-5.301,0-9.411,5.192c0,0-8.654,15.657-8.654,31.666h18.091h18.091
		C560.725,215.177,552.072,199.52,552.072,199.52z"/>
	<path opacity="0.6" fill="#B4B3B7" d="M537.254,199.642c0,0-7.144,18.172-6.929,27.474h6.929l1.729-27.474
		C538.983,199.642,538.372,196.843,537.254,199.642z"/>
</g>
<g>
	<path fill="#A86413" d="M526.302,377.104h-6.795v72.025h0.686c0,1.704,2.867,3.707,7.817,5.591
		C518.666,430.686,519.857,400.474,526.302,377.104z"/>
	<g>
		<path fill="#C07913" d="M526.302,377.104c-6.444,23.369-7.636,53.581,1.708,77.616c5.371,2.043,13.197,3.944,22.502,5.164
			c36.85-9.744,45.527-49.084,45.806-82.78H526.302z"/>
		<g>
			<path fill="#AF6514" d="M596.317,377.104c-0.278,33.696-8.956,73.036-45.806,82.78c6.51,0.853,13.734,1.375,21.353,1.375
				c28.539,0,51.672-7.284,51.672-12.13v-72.025H596.317z"/>
			<path fill="#F7D879" d="M620.023,373.64c-7.536-3.586-26.403-6.129-48.502-6.129c-28.727,0-52.015,4.295-52.015,9.594
				s23.288,9.594,52.015,9.594c0.017,0,0.034,0,0.051,0c1.601-0.14,3.923-0.144,5.513-0.312
				C589.996,385.532,616.308,387.285,620.023,373.64z"/>
			<path fill="#E2BD60" d="M623.536,377.104c0-1.223-1.253-2.39-3.513-3.465c-8.479,13.059-30.763,11.399-39.03,12.298
				c-1.589,0.167-7.82,0.621-9.421,0.761C600.276,386.692,623.536,382.4,623.536,377.104z"/>
			<path fill="#E2BD60" d="M519.507,377.598c0-1.025,0-1.388,1.196-2.547c8.479,10.959,31.288,10.223,39.556,10.977
				c1.589,0.14,9.662,0.554,11.263,0.671c-12.533-0.002-24.037-0.812-33.022-2.182C526.906,382.749,519.507,380.102,519.507,377.598
				z"/>
		</g>
	</g>
</g>
<g>
	<g>
		<rect x="260.992" y="39.161" fill="#F9F9F9" width="168.894" height="187.955"/>
		<rect x="260.992" y="38.971" fill="#323330" width="170.488" height="2.686"/>
		<rect x="260.992" y="224.619" fill="#323330" width="170.488" height="2.497"/>
		<polygon fill="#1B1C1A" points="264.182,224.696 260.992,227.116 260.992,38.971 264.182,41.389 		"/>
		<polygon fill="#4F4F4E" points="431.48,227.116 428.291,224.698 428.291,41.391 431.48,38.971 		"/>
		<g>
			<path fill="#F2E3B8" d="M346.236,83.489c-26.204,0-47.445,21.242-47.445,47.445s21.241,47.445,47.445,47.445
				c26.203,0,47.444-21.242,47.444-47.445S372.439,83.489,346.236,83.489z M346.236,140.1c-5.062,0-9.166-4.104-9.166-9.166
				s4.104-9.166,9.166-9.166c5.062,0,9.165,4.104,9.165,9.166S351.298,140.1,346.236,140.1z"/>
		</g>
	</g>
	<g>
		<rect x="141.854" y="68.013" fill="#F9F9F9" width="78.318" height="87.157"/>
		<rect x="141.854" y="67.924" fill="#E2CBCD" width="79.058" height="1.246"/>
		<polygon fill="#CAC7C4" points="220.05,155.748 140.992,155.748 141.854,154.012 220.912,154.012 		"/>
		<polygon fill="#A7808A" points="143.333,154.047 141.854,155.169 141.854,67.924 143.333,69.045 		"/>
		<polygon fill="#CAC7C4" points="220.912,155.169 219.432,154.048 219.432,69.046 220.912,67.924 		"/>
		<g>
			<path fill="#F2E3B8" d="M180.317,110.569c0-1.73,1.038-3.213,2.521-3.876c-0.023-6.163,1.265-12.391,3.762-18.022
				c-0.67-0.062-1.347-0.103-2.034-0.103c-12.15,0-22,9.85-22,22s9.85,22,22,22c2.537,0,4.963-0.451,7.231-1.241
				c-4.242-4.66-6.926-10.442-8.16-16.619C181.74,114.285,180.317,112.596,180.317,110.569z"/>
		</g>
	</g>
	<g>
		<rect x="474.792" y="68.013" fill="#F9F9F9" width="78.317" height="87.157"/>
		<rect x="474.792" y="67.924" fill="#2F484B" width="79.057" height="1.246"/>
		<rect x="474.792" y="154.012" fill="#2F484B" width="79.057" height="1.158"/>
		<polygon fill="#082021" points="476.271,154.047 474.792,155.169 474.792,67.924 476.271,69.045 		"/>
		<polygon fill="#7A9495" points="553.849,155.169 552.37,154.048 552.37,69.046 553.849,67.924 		"/>
		<g>
			<path fill="#F2E3B8" d="M527.079,92.668c-2.36,5.602-5.375,11.037-9.017,15.926c0.314,0.593,0.508,1.257,0.508,1.975
				c0,2.347-1.903,4.25-4.25,4.25c-0.466,0-0.905-0.093-1.326-0.232c-4.325,4.494-9.313,8.221-14.942,10.757
				c4.025,4.428,9.813,7.226,16.269,7.226c12.15,0,22.001-9.85,22.001-22C536.321,103.18,532.666,96.657,527.079,92.668z"/>
		</g>
	</g>
</g>
<g>
	<g>
		<polygon fill="#E2CBCD" points="519.712,377.067 165.494,377.067 190.613,356.04 485.533,356.04 		"/>
		<rect x="165.494" y="377.067" fill="#A7808A" width="354.218" height="4.852"/>
		<rect x="174.504" y="381.919" fill="#826E73" width="4.972" height="81.681"/>
		<rect x="186.001" y="381.919" fill="#5E5356" width="4.35" height="52.836"/>
		<rect x="505.07" y="381.919" fill="#826E73" width="4.971" height="81.681"/>
		<rect x="494.194" y="381.919" fill="#5E5356" width="4.35" height="52.836"/>
	</g>
	<g>
		<g>
			<path fill="#6D6B69" d="M251.485,337.705c-0.211,0.236-0.277,0.583-0.324,0.884c-0.19,1.219,0.024,2.496,0.227,3.698
				c0.081,0.477,0.803,0.273,0.724-0.199c-0.177-1.044-0.322-2.107-0.24-3.167c0.016-0.207,0.057-0.411,0.12-0.607
				c0.016-0.049,0.123-0.189,0.023-0.077C252.337,337.877,251.808,337.345,251.485,337.705L251.485,337.705z"/>
		</g>
		<path fill="#F9F9F9" d="M257.25,360.775v-13.593c0-3.037-2.462-5.5-5.5-5.5s-5.5,2.463-5.5,5.5v8.26
			C248.611,359.902,252.901,361.12,257.25,360.775z"/>
		<path fill="#E5E5E5" d="M246.25,355.442v5.69c0,0.539,0.081,1.058,0.225,1.55h10.55c0.144-0.492,0.225-1.011,0.225-1.55v-0.357
			C252.901,361.12,248.611,359.902,246.25,355.442z"/>
		<polygon fill="#D79631" points="256.667,364.751 246.833,364.751 244.833,361.625 258.667,361.625 		"/>
	</g>
	<g>
		<g>
			<path fill="#6D6B69" d="M235.047,331.154c-0.176,0.298-0.231,0.733-0.271,1.112c-0.159,1.535,0.02,3.144,0.19,4.657
				c0.067,0.6,0.672,0.345,0.606-0.251c-0.148-1.314-0.27-2.653-0.201-3.987c0.013-0.261,0.047-0.519,0.101-0.765
				c0.013-0.062,0.103-0.239,0.02-0.098C235.761,331.371,235.318,330.701,235.047,331.154L235.047,331.154z"/>
		</g>
		<path fill="#F9F9F9" d="M239.875,360.203v-17.115c0-3.824-2.062-6.926-4.605-6.926s-4.605,3.102-4.605,6.926v10.4
			C232.641,359.104,236.233,360.637,239.875,360.203z"/>
		<path fill="#E5E5E5" d="M230.664,353.488v7.165c0,0.679,0.068,1.331,0.188,1.951h8.834c0.121-0.62,0.188-1.272,0.188-1.951v-0.45
			C236.233,360.637,232.641,359.104,230.664,353.488z"/>
		<polygon fill="#D79631" points="239.386,365.209 231.152,365.209 229.478,361.273 241.061,361.273 		"/>
	</g>
	<g>
		<g>
			<g>
				<polygon fill="#1D1D1B" points="456.345,316.596 427.235,316.596 436.817,307.863 445.59,307.863 				"/>
			</g>
			<g>
				<rect x="426.318" y="316.596" fill="#1D1D1B" width="30.727" height="2.749"/>
			</g>
			<g>
				<path fill="#1D1D1B" d="M445.671,308.187h-8.895v-4.313h8.895V308.187z M437.423,307.539h7.601v-3.019h-7.601V307.539z"/>
			</g>
			<g>
				<path fill="#1D1D1B" d="M441.224,304.521c-2.378,0-4.312-1.935-4.312-4.312s1.934-4.312,4.312-4.312s4.312,1.935,4.312,4.312
					S443.602,304.521,441.224,304.521z M441.224,296.543c-2.021,0-3.665,1.644-3.665,3.665s1.644,3.665,3.665,3.665
					s3.665-1.644,3.665-3.665S443.245,296.543,441.224,296.543z"/>
			</g>
			<g>
				<rect x="427.559" y="319.345" fill="#1D1D1B" width="1.94" height="45.982"/>
			</g>
			<g>
				<rect x="454.026" y="319.074" fill="#1D1D1B" width="1.94" height="45.982"/>
			</g>
			<g>
				<rect x="429.499" y="319.345" fill="#0A0A09" width="24.527" height="2.371"/>
			</g>
			<g>
				<rect x="427.559" y="363.603" fill="#1D1D1B" width="28.408" height="1.725"/>
			</g>
			<g>
				<polygon fill="#1D1D1B" points="441.163,300.787 437.322,303.981 445.125,303.981 				"/>
			</g>
		</g>
		<rect x="429.499" y="321.716" opacity="0.2" fill="#FFFFFF" width="24.527" height="41.887"/>
	</g>
</g>
</svg>
