<?xml version="1.0" encoding="utf-8"?>
<!-- Generator: Adobe Illustrator 16.0.0, SVG Export Plug-In . SVG Version: 6.00 Build 0)  -->
<!DOCTYPE svg PUBLIC "-//W3C//DTD SVG 1.1//EN" "http://www.w3.org/Graphics/SVG/1.1/DTD/svg11.dtd">
<svg version="1.1" id="Layer_1" xmlns="http://www.w3.org/2000/svg" xmlns:xlink="http://www.w3.org/1999/xlink" x="0px" y="0px"
	 width="720px" height="503.999px" viewBox="0 0 720 503.999" enable-background="new 0 0 720 503.999" xml:space="preserve">
<symbol  id="New_Symbol" viewBox="-0.763 -0.763 1.526 1.525">
	<path fill="#FFFFFF" d="M0.763,0c0-0.421-0.342-0.762-0.763-0.762S-0.763-0.421-0.763,0S-0.421,0.763,0,0.763S0.763,0.42,0.763,0z"
		/>
</symbol>
<rect y="-0.264" fill="#FFFFFF" width="720" height="504.263"/>
<path fill="#F4F4F4" d="M703.002,256.221C691.478,163.849,533.621,19.333,354.047,19.333C133.654,19.333,29.028,108.412,28.9,252
	c-0.047,52.487,2.677,97.512,20.699,133.584h644.119C706.942,353.595,709.9,311.509,703.002,256.221z"/>
<path fill="#E2E0E0" d="M49.324,385.584c31.65,63.35,110.493,99.079,304.448,99.082c193.547,0.003,303.993-12.779,339.67-99.082
	H49.324z"/>
<g opacity="0.7">
	<path fill="#CDCBC4" d="M289.383,413.344c12.608-1.025,36.144-4.081,44.144-6.081c17-3,26.199-0.904,43.199-1.904
		c52-1,104-13,156-12c21,0,70-3,82,20c10,19-9.306,28.287-24,35c-51.787,23.658-97.047,13.549-142.047,4.549
		c-50-10-96.207,6.381-144.684,17.109c-31.63,7-113.269,1.342-116.269-24.658C183.726,417.358,264.657,420.035,289.383,413.344"/>
</g>
<rect x="28.899" y="369.848" fill="#FFFFFF" width="673.434" height="15.736"/>
<path fill="#99887F" d="M586.876,363.399c-2.094-17.672-4.397-36.828-4.397-36.828h-9.104l7.776,43.535
	C583.297,368.108,585.275,365.942,586.876,363.399z"/>
<path fill="#AD9B90" d="M586.876,363.399c-1.601,2.543-3.579,4.709-5.725,6.707l4.058,22.717c1.517,3.689,5.158,2.459,5.009-0.352
	C590.149,391.21,588.582,377.797,586.876,363.399z"/>
<path fill="#99887F" d="M539.806,325.947h-9.283c0,0-2.661,21.7-4.894,40.215c1.965,1.304,3.961,2.801,6.107,4.082L539.806,325.947z
	"/>
<path fill="#AD9B90" d="M525.629,366.162c-1.574,13.053-2.935,24.523-2.999,25.686c-0.152,2.811,3.561,4.041,5.107,0.352
	l3.999-21.955C529.59,368.963,527.594,367.466,525.629,366.162z"/>
<rect x="505.87" y="258.393" fill="#DFDFDF" width="101.75" height="90.679"/>
<rect x="509.56" y="261.029" fill="#FFFFFF" width="94.897" height="40.595"/>
<circle opacity="0.8" fill="#C6C6C6" cx="556.256" cy="284.06" r="2.732"/>
<rect x="509.56" y="303.732" fill="#FFFFFF" width="94.897" height="42.703"/>
<path fill="#CFBEB1" d="M509.56,414.972c-0.175,2.811,4.043,4.041,5.8,0.352l12.273-59.317c-3.322-0.172-6.651-0.382-9.987-0.626
	C515.417,371.424,509.701,412.709,509.56,414.972z"/>
<path fill="#BFADA1" d="M518.522,349.071c0,0-0.336,2.414-0.877,6.309c3.336,0.244,6.665,0.454,9.987,0.626l1.435-6.935H518.522z"/>
<path fill="#CFBEB1" d="M585.19,356.202l12.231,59.121c1.757,3.689,5.975,2.459,5.801-0.352c-0.141-2.242-5.756-42.807-8.025-59.154
	C591.858,355.957,588.523,356.088,585.19,356.202z"/>
<path fill="#BFADA1" d="M594.259,349.071h-10.544l1.476,7.131c3.333-0.114,6.668-0.245,10.007-0.385
	C594.62,351.663,594.259,349.071,594.259,349.071z"/>
<circle fill="#020202" cx="557.008" cy="283.267" r="2.541"/>
<circle opacity="0.8" fill="#C6C6C6" cx="556.256" cy="325.947" r="2.732"/>
<circle fill="#020202" cx="557.008" cy="325.084" r="2.541"/>
<path fill="#E0CDCC" d="M206.038,207.792L322,200.524c0,0,15.857-2.643,28.082,16.188c12.224,18.832,28.742,67.396,28.742,67.396
	l9.582,35.384l-51.313,13.225l-85.133-7.642L206.038,207.792z"/>
<polygon fill="#D9C2BF" points="378.221,282.356 462.74,292.125 457.125,324.896 386.094,318.832 "/>
<polygon fill="#AD8779" points="337.378,343.983 335.215,328.772 457.125,321.971 457.456,370.38 342.484,395.149 "/>
<path fill="#E8DFE1" d="M456.32,323.707c0,0,1.763-3.957-11.09-5.19c-20.278-1.946-61.855-2.142-63.762-1.652l-46.267,8.032
	l2.177,19.087c0,0,31.276-3.667,64.122-9.108C421.207,331.61,441.4,327.37,456.32,323.707z"/>
<polygon fill="#E0CDCC" points="340.603,370.739 343.325,394.984 455.785,370.739 455.785,348.776 "/>
<path fill="#E8DFE1" d="M337.875,344.375c0,0,41.729-5.101,63.188-8.812c29.071-5.028,54.723-10.982,54.723-10.982v23.179
	l-115.182,22.399L337.875,344.375z"/>
<path fill="#EFE1E1" d="M456.133,370.739l17.181-4.663c0,0-3.451-67.91-4.111-70.554c-0.662-2.643-13.069-6.589-13.069,1.079
	C456.133,302.479,456.133,370.739,456.133,370.739z"/>
<polygon fill="#CFBEB1" points="322.843,399.004 324.973,448.891 333.527,446.688 334.076,396.36 "/>
<polygon fill="#CFBEB1" points="439.573,374.296 440.278,384.027 433.476,385.37 333.527,407.263 334.076,396.36 "/>
<polygon opacity="0.2" fill="#636363" points="396.83,319.588 336.304,334.122 336.144,329.538 376.667,319.588 "/>
<polygon fill="#CFBEB1" points="439.573,374.296 447.725,372.544 449.525,415.633 442.737,418.05 "/>
<polygon fill="#AD9B90" points="438.679,417.275 442.737,418.05 440.278,384.027 433.476,385.37 "/>
<polygon opacity="0.1" fill="#636363" points="394.818,299.858 407.478,316.586 402.333,316.638 "/>
<polygon fill="#AD9B90" points="317.667,398.839 322.843,399.004 324.973,448.891 321.192,447.79 "/>
<polygon opacity="0.1" fill="#636363" points="277.406,248.13 284.25,305.766 299.197,307.574 285.324,261.634 "/>
<polygon fill="#99887F" points="317.667,398.839 318.056,404.248 240.176,391.516 242.341,385.239 "/>
<polygon fill="#99887F" points="239.615,376.182 223.4,430.39 225.162,433.003 242.685,385.3 "/>
<polygon fill="#70615A" points="245.14,392.265 240.176,391.516 225.162,433.003 230.6,431.409 "/>
<g>
	<path fill="#DDDDDD" d="M402.118,315.2c-26,0-53,5-78-4c-18.543-7.417-29.349-24.289-38.794-40.257
		c1.444,8.618,3.604,17.968,7.51,28.728c5.826,16.049,13.027,25.999,13.027,25.999s11.894,4.955,18.171,4.625
		c4.253-0.224,31.805-1.105,52.636-8.451c9-3.174,22.75,0.144,25.666-5.206c0.189-0.348,0.227-0.844,0.16-1.441
		C402.368,315.197,402.242,315.2,402.118,315.2z"/>
	<path fill="#E9EBEC" d="M324.118,311.2c25,9,52,4,78,4c0.124,0,0.25-0.003,0.375-0.004c-0.815-7.271-19.27-31.589-21.66-38.696
		c-4.32-12.846-5.854-33.472-9.186-37.924c-1.553-2.075-6.716,7.027-18.481,5.258c-13.297-2-29.833-3.833-57.167,3
		c-6.289,1.572-17.844-0.776-17.844-0.776c-3.344,3.471,5.549,13.72,6.054,17.476c0.325,2.417,0.69,4.884,1.113,7.41
		C294.77,286.911,305.575,303.783,324.118,311.2z"/>
</g>
<path fill="#C5A497" d="M206.076,207.689c-0.991-0.04,18.17,108.694,18.17,108.694l18.171,70.701l79.75,12.554
	c0,0-3.42-62.604-4.424-75.656c-0.661-8.59-4.956-9.581-25.108-12.224c0,0-22.647-3.925-37.994-8.26
	c-13.368-3.775-22.939-30.381-29.072-60.459C218.629,209.011,214.334,208.02,206.076,207.689z"/>
<path fill="#EFE1E1" d="M321.32,399.638l21.164-4.488c0,0-6.713-70.719-8.095-75.326c-1.982-6.607-9.314-9.514-37.396-12.487
	c-28.312-2.998-35.854-4.665-41.508-6.014c-2.995-0.714-7.488-1.651-7.488-1.651c4.404,7.488,61.221,12.643,66.176,18.897
	c5.161,6.516,3.419,10.381,4.68,30.208C320.573,375.852,321.32,399.638,321.32,399.638z"/>
<g>
	<path fill="#476348" d="M111.101,221.275c0,0,2.489,1.034,5.019-0.527c2.529-1.562,4.042-2.699,3.706-7.509
		c-0.274-3.93-5.047-7.644-8.725-10.295c-0.699,12.986-11.188,20.432-22.711,24.285c3.261,0.905,8.182-0.399,11.315-2.625
		c3.637-2.582,4.888-4.374,5.614-3.123c0.726,1.251-1.665,2.686-2.948,3.099c-1.282,0.414-6.803,3.452-8.599,4.977
		c-1.795,1.525,8.34-1.922,9.956-0.724c1.617,1.199,8.787,3.426,10.976,2.05c2.188-1.376,4.943-3.035,2.99-6.132
		C115.978,222.03,110.9,224.531,111.101,221.275z"/>
	<path fill="#507153" d="M111.101,202.943c-0.824-0.594-1.595-1.136-2.246-1.614c-3.557-2.611-12.192-3.231-13.187-3.339
		c-0.995-0.108,6.565,5.599,8.03,8.857c1.465,3.258,1.292,5.85,0.578,7.02c-0.714,1.169-3.408-3.005-3.224-5.862
		s-2.71-6.463-5.866-8.547c-3.157-2.083-4.194-2.792-4.194-2.792s-10.294-2.421-17.46,1.748c-1.232,0.717,0.098,7.333-0.11,7.524
		c0,0,8.893,4.096,12.234,3.833c3.341-0.262,4.56,0.92,3.973,2.228c-0.587,1.309-5.896,0.823-8.317-0.274
		c-2.42-1.099-6.187-1.853-7.605-2.978c-1.419-1.124,0.659,5.024,3.312,6.932c2.653,1.908,14.681,4.037,19.884,0.883
		c2.846-1.726,3.504,2.276,0.412,2.948c0,0-13.741,1.65-17.631-0.783c-3.889-2.433,4.21,5.977,7.271,7.894
		c0.424,0.265,0.909,0.462,1.433,0.608C99.912,223.375,110.401,215.929,111.101,202.943z M96.019,208.93
		c-1.694-0.36-3.632-3.118-4.005-4.695c-0.237-1.008,0.532-0.681,0.532-0.681s1.615,0.809,3.513,2.78
		C97.887,208.233,96.019,208.93,96.019,208.93z"/>
	<path fill="#283C35" d="M101.572,215.206c-4.148-2.513-10.751-5.072-10.751-5.072s8.491,4.146,11.963,6.387
		c0.511,0.33,1.144,0.742,1.829,1.19c0.118-0.122,0.231-0.248,0.347-0.372C103.486,216.402,102.165,215.565,101.572,215.206z"/>
	<path fill="#21302A" d="M111.101,221.275c0,0-3.347-2.155-6.142-3.936c-0.115,0.124-0.229,0.25-0.347,0.372
		c2.826,1.848,6.562,4.321,6.562,4.321L111.101,221.275z"/>
</g>
<g>
	<path fill="#774A3C" d="M137.085,312.062l-2,0.037l0.37,19.784c0.667,0.023,1.334,0.044,2.002,0.061L137.085,312.062z"/>
	<path fill="#774A3C" d="M144.054,332l0.867-19.876l-1.998-0.088l-0.871,19.972C142.719,332.009,143.387,332.006,144.054,332z"/>
	<path fill="#B27454" d="M142.052,332.008l-3.215,73.73l-1.379-73.795c-0.668-0.017-1.335-0.037-2.002-0.061l1.981,105.993
		l1.999,0.025L144.054,332C143.387,332.006,142.719,332.009,142.052,332.008z"/>
</g>
<g>
	<path fill="#774A3C" d="M155,312.052L153,312.108l0.561,19.526c0.667-0.047,1.332-0.096,1.997-0.151L155,312.052z"/>
	<path fill="#774A3C" d="M161.379,306.218l-2-0.031l-0.401,24.966c0.67-0.074,1.337-0.162,2.004-0.247L161.379,306.218z"/>
	<path fill="#B27454" d="M158.978,331.152l-1.231,76.549l-2.188-76.218c-0.665,0.056-1.33,0.104-1.997,0.151l3.467,120.749l2-0.013
		l1.954-121.466C160.314,330.99,159.647,331.078,158.978,331.152z"/>
</g>
<g>
	<path fill="#774A3C" d="M109.657,308.974l-1.999-0.057l-0.573,20.525c0.662,0.081,1.326,0.161,1.994,0.24L109.657,308.974z"/>
	<path fill="#774A3C" d="M111.948,311.69l-1.086,18.203c0.66,0.076,1.325,0.15,1.989,0.225l1.093-18.309L111.948,311.69z"/>
	<path fill="#B27454" d="M107.5,386.192l1.578-56.51c-0.667-0.079-1.332-0.159-1.994-0.24l-3.345,119.75l1.998,0.088l7.114-119.162
		c-0.665-0.074-1.329-0.148-1.989-0.225L107.5,386.192z"/>
</g>
<g>
	<path fill="#845340" d="M160.531,304.084l-1.736-0.992c0.134-0.234,0.335-0.535,0.569-0.882c0.659-0.977,1.884-2.793,1.632-3.808
		c-0.043-0.176-0.156-0.439-0.628-0.69c-0.182-0.099-0.328-0.104-0.523-0.024c-1.292,0.533-2.846,3.942-3.536,6.193l-1.912-0.586
		c0.323-1.055,2.066-6.374,4.684-7.456c0.747-0.308,1.518-0.271,2.229,0.108c1.084,0.578,1.483,1.392,1.628,1.973
		c0.467,1.878-0.967,4.002-1.916,5.408C160.821,303.626,160.646,303.883,160.531,304.084z"/>
</g>
<g>
	<path fill="#845340" d="M110.854,304.465c-1.303-3.059-3.002-5.911-3.916-6.652c0.169,0.924,0.998,2.935,2.603,5.097l-1.606,1.191
		c-0.041-0.055-4.063-5.522-2.754-7.702c0.166-0.276,0.67-0.896,1.747-0.74c2.267,0.341,4.789,5.725,5.767,8.023L110.854,304.465z"
		/>
</g>
<path fill="#FFFFFF" d="M162.73,307.574c0,2.488-1.748,4.462-6.959,4.506c0,0-11.717,1.254-21.238,1.254
	c-10.033,0-21.268-1.254-21.268-1.254c-4.894-0.019-6.958-2.018-6.958-4.506l0,0c0-2.489,0-4.507,6.958-4.507h42.506
	C162.73,303.067,162.73,305.085,162.73,307.574L162.73,307.574z"/>
<ellipse fill="#E5E5E5" cx="134.25" cy="304.62" rx="27.944" ry="2.954"/>
<path fill="#B0AEB7" d="M154.381,289.053L159.623,252h-25.09h-25.09l4.836,34.186C127.335,290.019,141.049,290.896,154.381,289.053z
	"/>
<path fill="#C2BFCB" d="M114.279,286.186l2.604,18.405c0,0,10.208,1.534,17.649,1.096c7.44,0.438,17.65-1.096,17.65-1.096
	l2.198-15.538C141.049,290.896,127.335,290.019,114.279,286.186z"/>
<polygon fill="#293F3A" points="132.955,262.776 71.039,291.873 77.715,294.009 130.025,268.11 "/>
<path fill="#223428" d="M120.952,276.582c0,0,1.014-1.061,3.638-3.31c-0.422-1.343-0.953-2.677-1.572-3.996
	C122.503,273.355,120.952,276.582,120.952,276.582z"/>
<path fill="#223428" d="M107.589,225.098c-7.586,2.203-10.653,2.654-10.653,2.654s6.807,1.143,11.23,5.446
	C108.203,230.439,108.111,227.692,107.589,225.098z"/>
<path fill="#1A2824" d="M131.737,249.907c-3.875-5.898-12.627-2.922-12.627-2.922l-9.077,4.683c0.315,0.537,0.672,1.05,1.085,1.532
	c3.015,3.015,6.025,6.481,8.525,10.191c-1.527-3.771-1.115-5.731-1.115-5.731c2.571,0.336,3.224,1.584,4.186,5.25
	c0.563,2.143,0.557,4.356,0.303,6.366c0.62,1.319,1.15,2.653,1.572,3.996c1.476-1.266,3.457-2.903,6.067-4.95
	C137.908,262.637,135.613,255.805,131.737,249.907z"/>
<path fill="#1A2824" d="M109.977,251.568l10.054-5.218c0,0,7.484-5.425,4.908-11.996c-2.576-6.571-6.827-12.39-15.656-9.754
	c-0.589,0.176-1.151,0.341-1.693,0.499c0.521,2.594,0.614,5.341,0.577,8.1c0.33,0.321,0.648,0.655,0.948,1.011
	c2.435,2.901,3.077,4.156,1.866,6.448c0,0-1.265-0.548-2.949-2.688C107.871,243.06,107.872,247.899,109.977,251.568z"/>
<path fill="#223428" d="M110.033,251.668l-29.026,14.977c0.007-0.027,0.011-0.047,0.011-0.047l28.959-15.03
	c-2.105-3.669-2.106-8.508-1.946-13.598c-0.357-0.454-0.732-0.975-1.119-1.583c-2.211-3.473-8.966-7.813-11.354-7.327
	c-2.388,0.487-9.066,4.337-10.166,5.497c-1.1,1.159,12.367,2.919,15.131,5.954c2.765,3.034,5.756,5.639,3.557,7.11
	c-2.198,1.471-6.107-2.098-7.263-3.056c-1.155-0.958-10.733-4.675-13.419-3.208c-2.687,1.466-5.932,8.524-5.932,8.524
	s16.632-1.336,17.14,1.852c0.509,3.188-4.428,3.461-6.698,3.098c-2.27-0.364-6.113-1.438-6.881,6.869
	c-0.274,2.977-0.354,4.445-0.342,5.109l-0.64,0.328c0,0-3.223-1.352,4.004,2.818c7.225,4.172,8.567,0.416,9.582-1.648
	c1.015-2.062,4.088-5.936,6.397-3.678c2.31,2.256-8.389,15.062-8.389,15.062s7.637,1.426,10.386,0.08
	c2.749-1.346,5.247-11.311,5.132-12.807c-0.115-1.498-0.771-6.75,1.7-7.695c2.471-0.945,2.87,3,3.749,7.012
	c0.88,4.008-5.46,16.018-3.878,15.791c1.582-0.229,8.581-3.455,10.358-5.123c1.778-1.67,2.136-9.691,0.578-13.502
	c-0.008-0.021-0.013-0.037-0.021-0.058c-2.5-3.71-5.511-7.177-8.525-10.191C110.705,252.718,110.348,252.205,110.033,251.668z"/>
<path fill="#1F302C" d="M177.076,259.121c1.778-1.67,2.136-9.69,0.578-13.5c-1.557-3.811-1.136-5.789-1.136-5.789
	c2.571,0.336,3.224,1.584,4.186,5.25c1.705,6.492-1.763,13.67-1.763,13.67s2.454-2.573,9.705-8.259
	c7.251-5.685,4.956-12.517,1.08-18.415c-3.875-5.898-12.627-2.922-12.627-2.922l-38.103,19.66c0.007-0.027,0.011-0.047,0.011-0.047
	l39.014-20.248c0,0,7.484-5.425,4.908-11.996c-2.576-6.571-6.827-12.39-15.656-9.754c-8.83,2.636-12.347,3.153-12.347,3.153
	s7.863,1.315,12.178,6.457c2.435,2.901,3.077,4.156,1.866,6.448c0,0-1.857-0.798-4.068-4.271c-2.211-3.473-8.966-7.813-11.354-7.327
	c-2.388,0.487-9.066,4.337-10.166,5.497c-1.1,1.159,12.367,2.919,15.131,5.954c2.765,3.034,5.756,5.639,3.557,7.11
	c-2.198,1.471-6.107-2.098-7.263-3.056c-1.155-0.958-10.733-4.675-13.419-3.208c-2.687,1.466-5.932,8.524-5.932,8.524
	s16.632-1.336,17.14,1.852c0.509,3.188-4.428,3.461-6.698,3.098c-2.27-0.364-6.113-1.438-6.881,6.869
	c-0.274,2.977-0.354,4.445-0.342,5.109l-0.64,0.328c0,0-3.223-1.352,4.004,2.818c7.225,4.172,8.567,0.416,9.582-1.648
	c1.015-2.062,4.088-5.935,6.397-3.677c2.31,2.256-8.389,15.061-8.389,15.061s7.637,1.428,10.386,0.08
	c2.749-1.346,5.247-11.31,5.132-12.805c-0.115-1.498-0.771-6.75,1.7-7.695c2.471-0.945,2.87,3,3.749,7.012
	c0.88,4.007-5.46,16.018-3.878,15.792C168.3,264.018,175.299,260.789,177.076,259.121z"/>
<path fill="#0B210F" d="M158.741,243.094c1.778-1.67,2.136-9.691,0.578-13.502c-1.557-3.811-1.136-5.789-1.136-5.789
	c2.571,0.336,3.224,1.584,4.186,5.25c1.705,6.492-1.763,13.672-1.763,13.672s2.454-2.574,9.705-8.26s4.956-12.518,1.08-18.415
	c-3.875-5.898-12.627-2.922-12.627-2.922l-38.103,19.66c0.007-0.027,0.011-0.047,0.011-0.047l39.014-20.248
	c0,0,7.484-5.425,4.908-11.996c-2.576-6.571-6.827-12.39-15.656-9.754c-8.83,2.636-12.347,3.153-12.347,3.153
	s7.863,1.315,12.178,6.457c2.435,2.901,3.077,4.156,1.866,6.448c0,0-1.857-0.798-4.068-4.271c-2.211-3.473-8.966-7.813-11.354-7.327
	c-2.388,0.487-9.066,4.337-10.166,5.497c-1.1,1.159,12.367,2.919,15.131,5.954c2.765,3.034,5.756,5.639,3.557,7.11
	c-2.198,1.471-6.107-2.098-7.263-3.056c-1.155-0.958-10.733-4.675-13.419-3.208c-2.687,1.466-5.932,8.524-5.932,8.524
	s16.632-1.336,17.14,1.852c0.509,3.188-4.428,3.461-6.698,3.098c-2.27-0.364-6.113-1.438-6.881,6.869
	c-0.274,2.977-0.354,4.445-0.342,5.109l-0.64,0.328c0,0-3.223-1.352,4.004,2.818c7.225,4.172,8.567,0.416,9.582-1.648
	c1.015-2.062,4.088-5.936,6.397-3.678c2.31,2.256-8.389,15.062-8.389,15.062s7.637,1.426,10.386,0.08
	c2.749-1.346,5.247-11.311,5.132-12.807c-0.115-1.498-0.771-6.75,1.7-7.695c2.471-0.945,2.87,3,3.749,7.012
	c0.88,4.008-5.46,16.018-3.878,15.791C149.965,247.988,156.964,244.762,158.741,243.094z"/>
<path fill="#293F3A" d="M94.082,317.244c1.035,1.601,11.297,13.839,12.238,14.592c0.941,0.753,2.636-7.813,2.636-11.391
	s-1.317-6.778-4.142-8.755c-2.325-1.628-10.835-7.782-14.034-9.907c-0.732,2.687-1.45,5.356-2.254,7.962
	C91.002,312.573,93.451,316.27,94.082,317.244z"/>
<path fill="#293F3A" d="M41.896,298.025c-4.613,1.131-10.416,4.346-11.358,7.923c-0.941,3.577-0.659,9.602-1.506,11.579
	c-0.848,1.977,0.941,5.836,1.883,6.872c0.941,1.035-0.283-3.859,1.036-5.46c0.874-1.062,8.2-7.886,15.731-12.329
	c0.65-3.56,1.955-7.072,3.808-10.468C47.613,296.84,43.779,297.564,41.896,298.025z"/>
<path fill="#293F3A" d="M83.275,327.506c1.016,3.106,7.042,23.628,7.982,24.476c0.941,0.848,8.473-10.072,8.473-10.072
	s1.6-1.694-0.942-7.249c-2.069-4.521-7.88-15.191-11.696-20.665c-1.302,3.515-2.89,6.849-5.039,9.872
	C82.591,325.361,83.004,326.678,83.275,327.506z"/>
<path fill="#293F3A" d="M38.352,334.943c-2.315,2.482-5.46,6.777-6.401,10.919c-0.942,4.143,5.271,6.024,5.271,6.024
	s2.51-7.92,8.189-14.309c3.93-4.418,5.067-5.624,9.476-6.653c-1.803-2.081-3.269-4.207-4.413-6.36
	C46.95,327.189,40.546,332.591,38.352,334.943z"/>
<path fill="#293F3A" d="M98.118,282.2c-0.988,1.679-1.845,3.408-2.612,5.169c1.692-0.311,3.735-0.24,4.977,0.505
	c2.824,1.694,5.331,4.424,5.331,4.424s-0.11-7.537-6.37-11.425C98.795,281.327,98.317,281.803,98.118,282.2z"/>
<path fill="#293F3A" d="M111.121,300.018c-0.753-1.695-2.73-5.742-4.331-6.684c-1.494-0.879-7.413,0.289-12.558-2.802
	c-0.981,2.643-1.8,5.337-2.563,8.036c0.052,0.013,0.1,0.023,0.153,0.037c4.707,1.224,19.016,10.543,19.298,10.92
	C111.403,309.902,111.875,301.713,111.121,300.018z"/>
<path fill="#293F3A" d="M69.363,333.642c1.026,2.264,1.864,4.711,2.031,6.008c0.377,2.919,1.883,23.252,1.6,24.1
	c-0.282,0.847,8.44-4.518,9.869-7.531c1.428-3.012-1.208-13.838-2.525-17.509c-0.562-1.564-2.012-5.282-3.571-9.128
	c-1.115,0.927-2.318,1.806-3.648,2.619C71.899,332.81,70.639,333.288,69.363,333.642z"/>
<path fill="#293F3A" d="M55.118,331.2c-0.035-0.04-0.065-0.08-0.1-0.119c0.002,0.628-0.091,2.735-1.416,3.861
	c-2.039,1.733-10.543,10.355-13.18,14.026c-2.636,3.671-1.223,5.461-1.223,5.461s4.235,1.411,5.271,3.859
	c1.036,2.448,1.224,3.296,1.224,3.296s1.883-1.79,4.048-0.378c2.165,1.411,2.165,1.411,2.165,1.411s4.236-4.046,4.425-14.024
	c0.188-9.979,1.506-9.132,1.506-9.132s4.142,0.563,3.954,8.095c-0.188,7.531-1.412,14.968-2.259,16.381
	c-0.847,1.412,5.931,0.658,7.437-3.577c1.506-4.236,0.659-15.345-0.753-21.37c-0.414-1.769-0.785-3.327-1.064-4.674
	C61.527,334.471,57.992,333.499,55.118,331.2z"/>
<path fill="#1A2824" d="M93.141,289.804c-1.374-1.024,0.21-2.038,2.366-2.435c0.767-1.761,1.624-3.49,2.612-5.169
	c0.199-0.397,0.677-0.873,1.326-1.327c-1.112-0.69-2.415-1.268-3.95-1.665c-10.173-2.634-16.145,8.742-16.944,10.837
	c-0.73,1.909-2.363-0.591-2.363-0.591s-0.138-6.174-0.491-7.81c-0.529-2.445-3.443-6.011-7.732-7.782
	c-0.349,2.983-1.295,5.562-2.846,6.338c-0.825,0.68-1.622,1.377-2.402,2.083c4.968,2.666,2.298,2.62,0.489,2.06
	c0,0-1-0.046-2.538-0.132c-2.567,2.533-4.834,5.216-6.749,8c4.11-0.239,7.519-0.485,8.816-0.666c2.302-0.32,3.106,2.26,0.094,2.637
	c0,0-5.715,0.951-11.337,1.961c-1.854,3.396-3.158,6.908-3.808,10.468c3.825-2.257,7.703-3.902,10.815-3.863
	c3.074,0.039,1.147,3.362-1.506,4.425c-0.329,0.131-5.483,1.872-9.78,4.033c-0.046,2.495,0.26,4.998,0.934,7.484
	c0.006-0.007,0.013-0.014,0.019-0.021c2-2.159,5.099-4.216,8.206-3.839c3.107,0.376-1.641,6.919-4.307,8.614
	c-0.405,0.258-0.956,0.649-1.588,1.12c1.144,2.153,2.61,4.279,4.413,6.36c0.043-0.01,0.083-0.021,0.126-0.03
	c0,0,0.003,0.071,0.004,0.187c0.035,0.039,0.064,0.079,0.1,0.119c2.874,2.299,6.409,3.271,10.035,3.116
	c-0.67-3.24-0.792-5.216,0.405-5.682c0.941-0.365,2.521,2.176,3.805,5.007c1.276-0.354,2.536-0.832,3.755-1.441
	c1.331-0.813,2.534-1.692,3.648-2.619c-2.101-5.183-4.401-10.599-4.995-11.301c-1.036-1.224-1.318-5.648,3.106-4.707
	c3.245,0.69,5.696,6.185,7.176,10.294c2.149-3.023,3.737-6.357,5.039-9.872c-0.872-1.251-1.641-2.231-2.236-2.804
	c-3.201-3.079-3.577-5.243-0.659-4.866c1.14,0.146,2.74,1.606,4.328,3.42c0.804-2.605,1.522-5.275,2.254-7.962
	c-0.687-0.456-1.133-0.73-1.216-0.73c-5.387,0-7.044-4.813,2.106-2.484c0.763-2.699,1.582-5.394,2.563-8.036
	C93.864,290.311,93.499,290.071,93.141,289.804z M62.169,302.276c-1.789-0.188-3.013-1.694-1.036-2.823c1.977-1.131,5.931,0,5.931,0
	C68.759,302.652,63.958,302.466,62.169,302.276z M76.478,303.03c-1.601-0.471-3.013-3.734,0-4.079c0,0,4.237,1.349,4.236,4.455
	C80.714,304.587,78.078,303.5,76.478,303.03z"/>
<path fill="#293F3A" d="M67.964,273.862c-1.375-0.567-2.888-0.955-4.512-1.058c-6.413-0.405-8.358,1.474-11.167,5.096
	c-0.559,0.712-2.013,3.3-2.542,4.231c-2.035,3.576,4.33-4.143,11.391-0.66c0.6,0.296,1.121,0.564,1.582,0.812
	c0.781-0.706,1.578-1.403,2.402-2.083C66.668,279.425,67.615,276.846,67.964,273.862z"/>
<path fill="#293F3A" d="M47.212,311.205c-1.853,0.932-3.546,1.94-4.624,2.933c-3.577,3.296-6.401,8.379-8.001,11.674
	c-1.601,3.295-3.578,4.236-4.708,5.647c-1.129,1.413-0.094,4.707,0.283,6.778c0.376,2.072,0.659,3.201,0.659,3.201
	s7.249-9.979,10.167-13.839c2.909-3.846,5.326-6.931,7.158-8.91C47.472,316.203,47.166,313.7,47.212,311.205z"/>
<path fill="#293F3A" d="M60.667,284.211c-4.602-0.256-14.032-0.861-16.007-1.625c-2.636-1.02-4.613-1.208-8.284,2.745
	c-3.671,3.954-2.315,6.718-4.857,7.471c-1.802,0.534,12.392-0.009,22.399-0.591C55.832,289.427,58.1,286.744,60.667,284.211z"/>
<path fill="#638170" d="M76.187,289.454l1.65,1.303c0,0-4.087,5.219-8.337,15.826c-1.57,3.919-9.014,22.82-10.18,26.484
	c-0.572,1.797,4.598-16.054,7.847-23.317C70.416,302.485,76.187,289.454,76.187,289.454z"/>
<g>
	<path fill="#0F2E17" d="M105.096,141.403c-0.847-0.752-1.707-1.444-2.547-2.003c-2.063,0.193-3.587,0.799-3.587,0.799
		S102.092,142.065,105.096,141.403z"/>
	<path fill="#08190A" d="M145.304,158.846c-5.689-7.579-10.391-6.041-14.057-4.233c-2.922,1.441-6.541,4.81-8.543,4.723
		c-0.509-0.022-0.915-0.268-1.177-0.826c0,0,0.237-1.475,2.121-2.407c1.883-0.933,6.396-8.582,3.077-14.206
		c-3.319-5.625-6.201-4.797-8.875-5.024c-0.119-0.01-0.24-0.036-0.36-0.051c0.773,1.938-1.093,4.935-0.372,6.378c4,8-3,17,0,27
		c0.066,0.528,0.164,1.048,0.286,1.56c0.595-0.432,1.509-0.251,2.088,0.901c0.801,1.596,2.716,5.587,3.491,8.704
		c0.043-0.056,0.093-0.108,0.135-0.165c-0.042,0.057-0.092,0.109-0.135,0.165c0.238,0.958,0.373,1.838,0.328,2.535
		c-0.193,3.025,1.531,13.252-4.653,18.473c0,0,6.924-2.631,8.258-2.168c1.335,0.463,5.295-1.537,6.189-3.505
		c0.896-1.969,0.941-10.169-2.382-14.854c-2.511-3.54-4.513-7.496-4.33-10.011c0.184-2.516,4.538,0.914,5.63,2.842
		s5.978,6.509,6.327,17.322c0.055,1.698,7.4-6.336,8.175-8.517c0,0,1.82-3.175-1.016-6.527c-3.694-4.365-11.05-7.679-12.429-10.114
		c-1.379-2.435,0.893-2.918,2.797-1.45c1.903,1.469,8.933,2.787,11.657,11.354C148.222,178.904,151.305,166.838,145.304,158.846z"/>
	<path fill="#0F2E17" d="M95.774,149.242c-2.238-0.876-8.442-4.732-12.859-3.303c-4.417,1.43-6.85,5.89-7.083,6.423
		c-0.233,0.535,6.625-0.134,14.974,2.777c2.438,0.85,4.582,1.516,6.438,2.096c1.376-1.613,2.838-3.161,4.301-4.696
		C99.124,151.143,96.709,149.607,95.774,149.242z"/>
	<path fill="#0F2E17" d="M84.261,156.835c-1.562,0.08-9.255-0.253-10.852,1.188c-1.596,1.44-2.714,10.114-2.714,10.114
		s10.505-4.352,14.464-4.038c2.231,0.177,4.655,0.536,6.831,1.002c0.857-1.841,1.913-3.547,3.099-5.163
		C90.691,158.476,85.242,156.784,84.261,156.835z"/>
	<path fill="#0F2E17" d="M107.644,195.989c-2.416,3.78-5.382,8.007-5.382,8.007s11.988,0.581,13.22,0.151
		c1.23-0.429,2.804-3.33,3.71-5.987c0.822-2.41,0.8-8.635-0.027-13.511c-2.61,1.602-5.65,2.643-8.14,3.314
		C110.341,190.837,109.146,193.638,107.644,195.989z"/>
	<path fill="#0F2E17" d="M105.096,141.403c-3.003,0.662-6.134-1.204-6.134-1.204s1.523-0.606,3.587-0.799
		c-0.962-0.641-1.898-1.11-2.754-1.28c-4.378-0.87-10.666,0.279-13.835,6.094c-0.502,0.921,8.863,0.743,11.243,2.343
		c0,0,3.702,1.458,6.731,3.457c1.613-1.735,3.157-3.498,4.505-5.367C107.41,143.591,106.266,142.442,105.096,141.403z"/>
	<path fill="#0F2E17" d="M90.83,168.172c-2.083-0.583-4.287-1.064-6.188-0.966c-4.687,0.243-12.188,0.218-14.983,2.412
		c-2.041,1.602-0.018,9.435-0.018,9.435s11.928-4.259,15.668-3.806c3.74,0.452,2.589,2.444,0.26,2.826
		c-2.33,0.381-15.824,4.002-15.824,4.002s3.982,6.322,1.067,8.509s4.954,1.082,6.157,4.956c0.814,2.621,10.664-8.854,11.392-9.936
		c0,0,2.54-2.376,2.455,1.022c-0.085,3.398-8.491,11.509-12.007,12.161c-3.518,0.652,5.978,2.511,6.759,2.471
		c0.781-0.041,7.941-3.962,9.952-11.533c0.398-1.501,0.749-2.751,1.065-3.795C91.571,182.064,88.975,175.036,90.83,168.172z"/>
	<path fill="#0F2E17" d="M99.189,187.539c-0.394,0.922-0.918,1.931-1.591,3.018c-2.939,4.747-10.225,11.285-10.225,11.285
		l8.565,3.056c0,0,4.238-2.853,6.209-5.125c1.82-2.099,3.498-6.301,4.045-10.866C103.648,189.046,101.279,188.542,99.189,187.539z"
		/>
	<path fill="#091E0C" d="M116.942,173.838c-0.292-0.975-0.02-1.727,0.462-2.078c-0.122-0.512-0.22-1.032-0.286-1.56c-3-10,4-19,0-27
		c-0.721-1.443,1.145-4.44,0.372-6.378c-1.635-0.207-3.331-0.855-4.812-1.304c-0.426,2.042-1.15,3.912-2.075,5.667
		c1.931,1.162,3.446,3.356,3.468,4.396c0.037,1.722-0.244,3.354-1.847,2.654c-0.638-0.279-2.046-1.801-3.785-3.587
		c-1.349,1.869-2.892,3.632-4.505,5.367c1.821,1.201,3.399,2.597,3.785,3.988c0.599,2.16-2.793,0.484-6.172-1.463
		c-1.463,1.535-2.925,3.083-4.301,4.696c4.5,1.407,7.269,2.297,8.132,3.99c1.221,2.392-2.797,1.451-4.717,0.662
		c-0.715-0.293-2.958-1.081-5.569-1.949c-1.187,1.615-2.242,3.322-3.099,5.163c2.474,0.529,4.627,1.196,5.799,1.896
		c2.239,1.336,2.015,2.611,0.047,2.922c-1.169,0.185-3.956-0.892-7.006-1.746c-1.855,6.864,0.741,13.892,5.754,17.757
		c1.28-4.225,1.989-4.96,2.913-4.087c0.872,0.824,0.915,2.838-0.308,5.697c2.09,1.003,4.458,1.508,7.003,1.368
		c0.208-1.738,0.258-3.526,0.081-5.274c-0.641-6.337-0.181-9.546,1.987-9.032c2.167,0.515,3.375,4.244,3.396,8.127
		c0.01,1.717-0.218,3.49-0.633,5.236c2.49-0.672,5.53-1.712,8.14-3.314c-0.085-0.501-0.176-0.993-0.278-1.46
		C117.793,178.181,117.512,175.74,116.942,173.838z"/>
	<path fill="#0F2E17" d="M106.567,140.851c1.326-0.751,2.769-0.428,4.035,0.333c0.925-1.755,1.649-3.625,2.075-5.667
		c-0.849-0.257-1.629-0.45-2.284-0.453c-1.88-0.006-5.425,4.145-7.609,4.31c-0.081,0.006-0.156,0.017-0.235,0.025
		c0.84,0.559,1.7,1.25,2.547,2.003C105.595,141.293,106.09,141.121,106.567,140.851z"/>
	<path fill="#507153" d="M70.189,191.502c-0.681,0.551,16.747-8.924,21.641-11.585c-0.119-0.257-0.236-0.515-0.343-0.778
		C86.755,181.828,73.048,189.189,70.189,191.502z"/>
	<path fill="#415942" d="M112.249,166.892c1.465-0.994,2.853-1.965,4.112-2.863c0.014-0.501,0.044-1,0.086-1.497
		c-1.974,1.511-4.381,3.301-6.986,5.116c-6.731,4.69-14.719,9.526-16.729,10.765c-0.277,0.17-0.706,0.419-1.244,0.726
		c0.107,0.263,0.224,0.521,0.343,0.778c0.393-0.214,0.715-0.389,0.93-0.506C94.428,178.503,104.343,172.257,112.249,166.892z"/>
	<path fill="#445E45" d="M121.527,158.51c0,0-2.011,1.671-5.081,4.022c-0.042,0.497-0.072,0.996-0.086,1.497
		c3.751-2.675,6.344-4.693,6.344-4.693L121.527,158.51z"/>
</g>
<g>
	<path fill="#293F3A" d="M222.802,282.087c-4.181-3.065-0.219-11.15-0.219-11.15l-4.102-2.764
		c-1.262,0.395-14.732-1.034-13.488-2.962c3.734-5.792,17.682,5.644,17.487,3.023c-0.195-2.623,0.344-8.856-1.585-10.1
		c-1.93-1.245-15.784-0.923-18.548,0.221c-0.803,0.332-1.813,0.68-2.882,0.963c-0.109,0.297-0.215,0.594-0.348,0.882
		c-3.222,6.802-9.269,10.771-16.478,12.484c-0.413,3.788-0.302,8.804,0.194,16.042c0.618,9.013,4.645,11.137,5.001,10.982
		c0.358-0.152,9.296,1.763,8.774,0.252c-0.521-1.509-0.574-6.56-3.28-12.374c-2.705-5.813-3.464-13.689-3.464-13.689
		c-0.418-1.764,3.303-5.897,4.202-1.93c3.384,14.93,12.417,23.568,12.417,23.568s0.486,2.025,6.608-5.879
		C220.51,280.086,225.639,284.167,222.802,282.087z"/>
	<path fill="#293F3A" d="M142.753,271.58c0.245,0.275,6.307,12.986,6.391,11.251c0.328-6.857,2.379-10.241,4.38-13.211
		c-3.502-1.426-6.819-3.184-9.777-5.233C141.727,267.153,142.753,271.58,142.753,271.58z"/>
	<path fill="#293F3A" d="M152.716,285.736c2.94,4.951,13.746,10.462,13.746,10.462s-1.614-3.662-1.337-6.704
		c0.278-3.042,0.106-9.465,0.27-10.761c0.095-0.763-0.02-2.989,0.507-5.662c-2.586-0.407-5.167-1.008-7.693-1.784
		C155.265,276.296,150.934,282.736,152.716,285.736z"/>
	<path fill="#293F3A" d="M195.519,230.443c3.69-1.801,7.021-2.677,7.021-2.677s2.602-2.472-7.077-4.492
		C195.085,225.542,195.166,227.953,195.519,230.443z"/>
	<path fill="#293F3A" d="M169.674,273.53c-1.033,4.229-2.315,9.956-2.308,11.671c0.01,2.783,2.187,10.221,3.391,10.465
		c1.205,0.244,11.949,4.006,11.949,4.006s-2.943-9.222-3.586-11.609c-0.429-1.59-1.487-8.888-1.318-14.566
		C175.166,273.756,172.435,273.759,169.674,273.53z"/>
	<path fill="#293F3A" d="M200.307,254.992c4.864-1.029,22.545-0.572,22.545-0.572s0.04-2.174-2.471-6.845
		c-2.512-4.672-5.124-0.189-5.95-3.916c-1.288-5.814-3.495-7.687-5.927-8.819c-2.431-1.13-5.727-1.661-9.75,0.13
		c-0.673,0.3-1.381,0.667-2.108,1.079C198.25,242.571,200.581,249.262,200.307,254.992z M199.517,245.562
		c3.028-2.692,4.854-1.011,4.854-1.011s-1.835,1.633-3.701,2.308C198.804,247.533,199.517,245.562,199.517,245.562z"/>
	<path fill="#1A2824" d="M199.118,260.2c0.133-0.288,0.239-0.585,0.348-0.882c-2.609,0.693-5.569,0.997-6.728-0.306
		c-1.633-1.836,2.947-2.787,7.19-3.932c0.115-0.031,0.244-0.06,0.379-0.089c0.273-5.73-2.057-12.421-3.661-18.942
		c-4.865,2.76-10.589,7.661-12.673,9.66c-2.397,2.296-2.815,1.517-2.815,1.517c-0.532-1.336,0.41-3.05,6.62-11.041
		c1.917-2.466,4.933-4.372,7.741-5.743c-0.353-2.491-0.434-4.902-0.056-7.169c-0.496-0.104-1.014-0.206-1.577-0.307
		c-11.54-2.066-15.698,9.525-16.615,11.821c-0.916,2.296-3.181,3.816-4.304,2.185c-1.123-1.632,2.017-7.713-0.034-9.835
		c-2.052-2.121-12.589,1.005-12.801,7.606c-0.211,6.602,3.984,10.762,6.412,10.903c2.428,0.143,2.165,3.173,2.165,3.173
		s-1.454,2.296-3.121,1.034c-3.723-2.817-6.695-2.826-11.428-0.754c-4.732,2.073-9.923,7.27-11.29,8.564
		c-1.367,1.296-2.262,5.465-0.601,4.315c1.663-1.151,3.968-2.379,7.507-4.869c3.539-2.491,7.17-3.584,8.17-2.829
		s-2.583,3.487-3.886,3.95c-1.83,0.649-7.752,3.113-10.087,5.85c-0.083,0.098-0.152,0.202-0.227,0.305
		c2.958,2.05,6.274,3.808,9.777,5.233c0.405-0.601,0.808-1.187,1.193-1.778c2.294-3.521,5.956-6.613,8.119-6.4
		c2.163,0.214-0.876,3.082-3.7,8.225c-0.283,0.517-0.6,1.062-0.928,1.621c2.527,0.776,5.107,1.377,7.693,1.784
		c0.369-1.869,1.048-3.954,2.344-5.919c3.149-4.775,2.887,1.213,2.693,1.55c-0.074,0.13-0.621,2.188-1.266,4.828
		c2.76,0.229,5.491,0.226,8.126-0.034c0.084-2.849,0.476-5.291,1.413-6.398c2.803-3.317,4.671-1.032,3.826,3.008
		c-0.166,0.795-0.297,1.651-0.399,2.579C189.849,270.971,195.896,267.002,199.118,260.2z M171.917,260.928
		c-0.41-1.938,2.131-3.703,2.131-3.703l0.438,0.491C176.005,260.534,172.326,262.867,171.917,260.928z M189.918,249.188
		c-0.062-1.918,5.559-2.808,5.559-2.808c1.888,0.458,2.189,1.443-0.334,2.765C192.067,250.757,189.98,251.106,189.918,249.188z"/>
</g>
<rect x="230.063" y="77.385" fill="#5E615D" width="5.958" height="7.446"/>
<rect x="284.602" y="57.64" fill="#5E615D" width="3.649" height="7.446"/>
<g>
	<path fill="#777E52" d="M144.145,118.717c-0.016,0-0.031-0.003-0.047-0.002c-7.908,0.141-8.755,3.671-10.59,6.354
		c-1.836,2.683-5.225,4.801-6.354,6.778c-1.129,1.977,1.13,8.189,0,10.59c-0.041,0.087-0.073,0.171-0.112,0.258
		c1.09-0.551,2.332-1.043,3.629-1.486c0.181-0.591,0.295-1.215,0.295-1.878c0-4.66,7.625-6.072,9.461-5.083
		c1.835,0.988,3.389,2.259,1.694,3.53c-1.074,0.806-6.627,1.782-11.451,3.432c-1.094,3.561-4.929,5.747-4.929,5.747
		s0.271-1.97,1.3-4.261c-1.252,0.633-2.303,1.341-2.994,2.143c-3.53,4.095-6.071,11.405-1.836,18.215
		c0.671,1.079,6.072-8.896,9.179-10.449c0,0,9.602-7.766,14.121-6.637c4.519,1.13-9.885,7.908-12.144,9.743
		c-2.259,1.836-10.025,6.072-11.155,11.579c-1.129,5.507,2.118,10.732,2.542,11.296c0.423,0.565,3.812-7.06,11.861-14.121
		c8.048-7.061,11.861-11.861,15.109-11.72c0.038,0.001,0.063,0.01,0.1,0.013C151.895,140.691,154.847,127.507,144.145,118.717z"/>
	<path fill="#777E52" d="M130.67,141.208c-1.297,0.443-2.54,0.936-3.629,1.486c-1.029,2.291-1.3,4.261-1.3,4.261
		S129.576,144.77,130.67,141.208z"/>
	<path fill="#777E52" d="M149.604,158.111c-1.977,1.553-14.262,12.567-15.109,14.262c-0.848,1.694-5.789,9.602-5.225,12.144
		c0.565,2.542,9.037,8.896,9.037,8.896s1.685-13.666,4.377-17.651c3.244-4.801,7.892-10.043,10.591-11.579
		c0.013-0.007,0.024-0.013,0.038-0.02c-0.891-2.605-1.293-5.383-1.431-8.258C151.185,156.739,150.307,157.559,149.604,158.111z"/>
	<path fill="#777E52" d="M155,167.726c-2.459,2.587-7.363,6.466-9.349,10.437c-2.542,5.083-7.045,12.973-6.401,17.228
		c0.47,3.107,9.931,5.648,9.931,5.648s2.632-15.109,5.34-18.781s4.121-1.271,3.132,1.412c-0.988,2.683-5.224,19.063-5.224,19.063
		s9.037-0.423,9.602,3.954c0.565,4.378,4.097-4.573,8.896-3.53c3.248,0.707-2.965-16.521-3.671-17.933c0,0-0.989-4.095,2.542-1.977
		c3.53,2.118,7.06,15.815,5.648,19.91c-1.412,4.096,6.213-4.801,6.637-5.648s0.565-10.731-6.213-17.369
		c-6.778-6.637-7.766-8.331-5.93-8.896c1.835-0.565,5,1.635,8.048,7.202c3.248,5.931,5.79,17.509,5.79,17.509l8.331-7.201
		c0,0-0.476-6.168-1.694-9.602c-1.553-4.378-7.484-10.873-14.544-13.979c-1.011-0.445-1.931-0.874-2.777-1.291
		C168.705,170.273,159.062,173.215,155,167.726z"/>
	<path fill="#777E52" d="M205.651,144.696c-1.54-2.118-10.154-7.06-17.073-6.354c-5.228,0.533-10.59,0.282-13.132-1.413
		c-2.542-1.694,3.671-4.236,6.354-4.236s10.425-2.414,22.028,3.671c1.823,0.956-2.259-11.579-4.095-13.697
		c0,0-2.259-3.812-7.484-2.824c-6.805,1.287-14.686,7.061-18.075,7.061s-2.542-2.683,0.141-3.812
		c2.683-1.13,8.268-7.75,18.922-5.507c2.683,0.565-8.19-9.884-20.193-8.332c-1.844,0.238-3.417,0.594-4.765,1.041
		c-2.551,11.894,2.908,22.998,5.623,34.506c3.604,0.254,9.88,0.921,12.416,2.579c3.072,2.008,14.878,6.295,16.688,15.927
		c0,0,1.359-8.867,2.645-9.996C206.935,152.18,207.19,146.814,205.651,144.696z"/>
	<path fill="#777E52" d="M175.252,157.612c0.96,0.367,1.933,0.819,2.876,1.346c4.801,2.683,9.038,7.343,11.579,12.144
		c2.542,4.801,5.225,10.45,5.225,10.45s7.766-12.286,8.048-13.839c0.283-1.553-1.835-4.942-4.095-7.484s-10.025-6.778-15.957-8.613
		c-3.797-1.175-6.283-2.073-8.198-2.707C175.203,151.771,175.431,154.666,175.252,157.612z"/>
	<path fill="#6E724C" d="M168.28,110.294c-6.973,2.311-7.848,7.103-8.084,11.244c-0.225,3.939,1.165,9.763-0.121,11.821
		c-0.328,0.524-0.828,0.804-1.573,0.747c0,0-1.412-1.13-1.271-3.671c0.141-2.537-5.204-11.821-13.085-11.718
		c10.702,8.791,7.75,21.975,7.678,34.041c1.958,0.141,1.303,1.663,0.061,3.147c0.137,2.875,0.54,5.652,1.431,8.258
		c2.717-1.53,3.912-0.534,3.068,1.715c-0.185,0.494-0.693,1.124-1.382,1.848c4.062,5.49,13.705,2.548,18.092-3.845
		c-5.062-2.493-7.127-4.5-5.554-6.193c1.414-1.522,4.497-1.303,7.714-0.076c0.179-2.946-0.049-5.841-0.52-8.703
		c-1.076-0.356-1.973-0.631-2.816-0.823c-2.683-0.612-2.542-3.531,0.283-3.389c0.443,0.022,1.033,0.057,1.704,0.104
		C171.188,133.292,165.729,122.188,168.28,110.294z"/>
	<path fill="#4B664C" d="M161.796,148.886c-0.689-8.507-1.722-15.527-1.722-15.527l-1.573,0.747c0,0,1.513,8.385,2.427,18.168
		c0.583,6.236,0.93,13.03,1.132,17.919c0.379-0.007,0.732-0.022,1.069-0.056C162.863,164.407,162.383,156.126,161.796,148.886z"/>
	<path fill="#507153" d="M162.061,170.193c0.118,2.864,0.188,5.078,0.227,6.133c0.142,3.848-0.476,26.672,0.339,31.565
		c0.188,1.129,0.659-27.004,0.728-31c0.015-0.856-0.068-3.357-0.226-6.754C162.792,170.171,162.439,170.187,162.061,170.193z"/>
</g>
<g>
	<path fill="#293F3A" d="M68.99,225.283c0,0,0.392-0.064,1.12-0.137c-0.037-0.281-0.084-0.562-0.14-0.843L68.99,225.283z"/>
	<path fill="#1F302C" d="M115.813,232.648c0,0-23.834-10.75-45.035-9.154l-0.809,0.809c0.056,0.281,0.104,0.562,0.14,0.843
		c4.587-0.46,23.023-1.295,48.013,11.002C119.431,236.792,115.813,232.648,115.813,232.648z"/>
	<path fill="#293F3A" d="M25.31,240.062c0.565-1.47,2.966-4.022,5.567-6.116c-0.312-1.21-0.56-2.792-0.608-4.456
		C24.544,234.845,24.62,241.858,25.31,240.062z"/>
	<path fill="#293F3A" d="M40.076,224.545c-0.329,0.086-0.662,0.173-1.021,0.267c-3.865,1.004-6.705,2.733-8.786,4.679
		c0.048,1.663,0.296,3.246,0.608,4.456c0.662-0.532,1.334-1.037,1.995-1.484C34.173,229.028,37.687,226.171,40.076,224.545z"/>
	<path fill="#293F3A" d="M40.076,224.545c0.584-0.398,1.101-0.723,1.501-0.963c0.703-1.613,1.436-3.232,2.124-4.841
		c-2.04,0.185-4.495,0.811-8.789,1.789c-3.787,0.863-4.755,5.11-4.644,8.961c2.081-1.946,4.921-3.675,8.786-4.679
		C39.414,224.719,39.747,224.632,40.076,224.545z"/>
	<path fill="#293F3A" d="M32.369,234.792c0.038-0.799,0.218-1.578,0.502-2.329c-0.661,0.447-1.333,0.952-1.995,1.484
		C31.459,236.204,32.258,237.149,32.369,234.792z"/>
	<path fill="#293F3A" d="M68.99,248.921c3.577-0.745,10.731-6.976,8.096-8.858c-1.36-0.971-5.471-4.596-8.388-7.957
		c-1.033,2.143-2.431,4.456-4.089,6.645C65.608,243.698,66.844,249.367,68.99,248.921z"/>
	<path fill="#293F3A" d="M55.584,246.791c-0.657,7.918-2.033,17.56-2.033,17.56s9.037-4.142,9.171-4.807
		c0.093-0.459-0.545-10.109-1.321-17.094C59.61,244.239,57.645,245.762,55.584,246.791z"/>
	<path fill="#1A2824" d="M60.329,221.047c-7.531,2.071-5.46,0-10.543-1.506c-2.507-0.743-4.1-0.98-6.085-0.8
		c-0.688,1.609-1.421,3.228-2.124,4.841c0.536-0.322,0.866-0.497,0.866-0.497s9.856-1.809-1.141,1.135
		c-0.918,2.135-1.76,4.257-2.35,6.332c1.68,0.333,2.677,1.372,2.926,1.287c0.166-0.057-1.528,1.93-3.765,4.199
		c0.03,3.102,1.105,6.007,3.951,8.575c0.188-0.307,0.377-0.56,0.566-0.729c2.148-1.936,2.266-1.094,2.772,3.093
		c2.303,1.221,4.64,1.453,6.917,0.976c0.169-3.708,0.371-7.29,0.291-9.206c-0.188-4.52,1.695-5.272,3.012-1.695
		c0.478,1.296,0.336,5.241-0.038,9.74c2.061-1.029,4.026-2.552,5.817-4.341c-0.348-3.131-0.723-5.727-1.073-6.717
		c-1.129-3.201,0.753-5.46,2.394-3.894c0.656,0.627,1.219,3.608,1.886,6.911c1.658-2.188,3.056-4.502,4.089-6.645
		c-2.737-3.155-4.423-6.078-1.779-6.351c0.978-0.101,2.101,0.194,3.284,0.73c-0.024-1.966-0.58-3.932-1.436-5.898
		C64.518,220.328,60.329,221.047,60.329,221.047z"/>
	<path fill="#293F3A" d="M76.333,223.118c-1.623-1.7-4.609-2.353-7.566-2.532c0.856,1.966,1.412,3.932,1.436,5.898
		c5.423,2.455,12.11,10.041,11.906,8.495C81.859,233.097,80.287,227.26,76.333,223.118z"/>
	<path fill="#293F3A" d="M40.076,224.545c-2.389,1.625-5.903,4.482-7.204,7.917c1.067-0.722,2.099-1.3,2.981-1.625
		c1.209-0.445,2.241-0.456,3.099-0.286c0.59-2.075,1.432-4.197,2.35-6.332C40.92,224.322,40.51,224.431,40.076,224.545z"/>
	<path fill="#293F3A" d="M45.403,246.976c0.07,0.583,0.148,1.23,0.24,1.945c0.754,5.845-7.907,15.241-4.519,15.43
		c3.39,0.188,12.648-1.604,11.473-4.451c-0.678-1.641-0.508-6.911-0.278-11.948C50.042,248.429,47.706,248.196,45.403,246.976z"/>
	<path fill="#293F3A" d="M38.113,236.038c-2.847,2.888-6.575,6.235-8.473,6.41c-3.389,0.312-9.226,4.771-7.343,6.492
		c1.883,1.722-1.317,11.081,2.259,10.604c3.578-0.476,7.908,5.748,10.544,3.488c2.432-2.085,4.705-14.745,6.964-18.42
		C39.218,242.044,38.144,239.14,38.113,236.038z"/>
</g>
<g>
	<path fill="none" d="M129.908,217.735c-4.658,0.002-4.941,2.842-4.941,2.842s2.824,0,4.941-0.848
		C132.026,218.884,129.908,217.735,129.908,217.735z"/>
	<path fill="none" d="M134.003,215.353c-1.069,1.544-0.883,2.545,1.09,2.354c-0.21-0.917-0.327-1.856-0.356-2.794
		C134.291,215.17,134.003,215.353,134.003,215.353z"/>
	<path fill="none" d="M140.922,213.517c-1.095-1.314-4.642,0.509-6.184,1.396c0.029,0.938,0.146,1.877,0.356,2.794
		c0.374-0.036,0.804-0.11,1.31-0.236C140.274,216.505,142.334,215.212,140.922,213.517z"/>
	<path fill="#638170" d="M176.731,190.646c1.375-0.438,2.982-0.795,4.717-0.993c4.942-0.565,7.86-1.271,10.167-1.553
		c2.306-0.282-1.649-3.18-3.812-3.248c-1.387-0.043-5.35-0.26-9.503,0.071c-0.058,0.094-0.132,0.179-0.182,0.277
		C177.475,187.001,177.033,188.818,176.731,190.646z"/>
	<path fill="#638170" d="M156.882,180.081c-0.42-0.583-0.881-1.162-1.416-1.725c-5.225-5.507-16.663-0.141-16.804,3.248
		c-0.141,3.389,7.202,6.213,7.484,8.473c0.282,2.259-2.824,2.683-5.366,1.412s-14.968-8.049-23.299,2.542
		c-8.332,10.59-3.766,10.732-3.766,10.732s10.943-5.561,19.11-4.048c3.074,0.569,5.457,1.038,7.335,1.452
		C146.221,195.25,155.194,190.013,156.882,180.081z"/>
	<path fill="#638170" d="M144.118,237.2c-2.099-2.099-3.096-4.75-4.003-7.516c-1.017,0.495-2.018,0.907-2.864,1.202
		c-3.248,1.129-15.392,11.438-16.098,13.979c-0.707,2.541,4.519,7.484,6.354,9.885c1.835,2.4,5.077-18.077,12.708-15.957
		c2.542,0.706-7.935,12.225-9.32,12.85l-1.412,5.508c0,0,9.58,3.916,8.331,9.742c-0.847,3.955,0.439-3.469,14.121-0.914
		c11.296,2.109,10.167,0,10.167,0s0.935-11.607-5.08-25.164C152.447,242.027,147.785,241.274,144.118,237.2z"/>
	<path fill="#5A7565" d="M176.3,194.353c-1.955,0.194-4.219,0.061-4.029-0.887c0.183-0.917,1.918-2.01,4.461-2.82
		c0.302-1.828,0.744-3.645,1.387-5.446c0.049-0.098,0.124-0.184,0.182-0.277c-2.325,0.186-4.709,0.541-6.736,1.2
		c-5.648,1.836-8.194,4.114-9.239,9.378c-0.467,2.357-3.47,1.496-3.47,1.496s-2.542-2.401-0.565-4.378
		c1.775-1.775,2.284-7.417-1.408-12.537c-1.688,9.932-10.662,15.169-16.721,22.085c5.112,1.126,6.373,1.836,6.786,2.973
		c0,0,0.236,0.988-3.577,0.847c-1.333-0.049-3.539-0.05-6.098,0.051c-0.425,0.697-0.814,1.415-1.154,2.163
		c-0.962,1.923-1.455,4.309-1.38,6.713c1.542-0.887,5.089-2.71,6.184-1.396c1.413,1.695-0.647,2.988-4.519,3.954
		c-0.506,0.126-0.936,0.2-1.31,0.236c0.372,1.62,1.03,3.167,2.024,4.493c0.604,1.007,1.083,2.055,1.501,3.119
		c3.879-1.967,7.386-3.661,7.386-1.211c0,2.088-3.009,4.173-5.891,5.577c0.907,2.767,1.904,5.417,4.003,7.516
		c3.667,4.074,8.329,4.827,12.905,3.615c-0.667-1.502-1.414-3.027-2.262-4.564c-2.259-4.094,4.095-3.389,5.083-1.553
		c0,0,1.107,1.52,2.512,3.829c2.64-1.557,5.088-3.642,7.103-5.954c-2.5-2.805-4.635-4.856-6.648-6.348
		c-3.812-2.824-3.954-6.213,0.988-5.507c2.31,0.33,5.699,3.713,8.784,7.483c0.189-0.333,0.369-0.667,0.536-1.002
		c1.546-2.872,2.408-5.842,2.868-8.877c-2.124-1.454-3.714-2.499-3.857-2.547c-0.423-0.142-5.225-5.084,1.13-3.389
		c1.134,0.302,2.184,0.716,3.155,1.191c0.101-2.625,0.019-5.286-0.081-7.961c-2.516-0.688-3.793-1.183-2.792-2.268
		c0.545-0.591,1.489-1.003,2.668-1.253C176.133,199.516,176.113,196.929,176.3,194.353z M160.691,209.05v-0.757
		c0,0,3.53-0.424,4.66,1.553C166.481,211.822,161.539,212.632,160.691,209.05z"/>
	<path fill="#638170" d="M198.535,196.713c0,0-2.683-4.942-6.778-5.507c-4.095-0.565-11.063,1.843-13.132,2.683
		c-0.484,0.196-1.368,0.369-2.325,0.464c-0.187,2.576-0.167,5.163-0.09,7.744c2.486-0.525,6.033-0.315,9.193,0.547
		c4.66,1.271,9.602,1.836,16.239,8.614C203.039,212.685,198.535,197.137,198.535,196.713z"/>
	<path fill="#638170" d="M176.414,213.579c4.471,2.189,7.214,5.762,8.142,6.574c1.13,0.989,5.89,6.637,8.452,9.037
		s3.974,6.779,3.974,6.779s5.07-12.989,3.812-19.487c-0.847-4.378-11.438-6.637-17.792-8.896c-2.599-0.924-4.928-1.492-6.669-1.968
		C176.433,208.293,176.515,210.954,176.414,213.579z"/>
	<path fill="#638170" d="M162.355,238.527c1.691,2.783,3.815,6.716,4.973,10.574c2.118,7.061,5.931,11.438,6.637,13.133
		c0.706,1.693,6.919-6.779,7.343-6.92s2.259-5.041-4.095-13.253c-2.999-3.875-5.521-6.981-7.754-9.488
		C167.443,234.886,164.995,236.97,162.355,238.527z"/>
	<path fill="#638170" d="M172.582,228.202c3.516,4.297,6.637,9.096,7.313,10.449c1.271,2.543,5.79,12.71,5.79,12.71
		s6.354-11.438,7.202-12.568c0.847-1.13-2.965-9.179-5.083-11.579c-1.404-1.591-7.643-6.033-11.817-8.891
		c-0.46,3.035-1.322,6.005-2.868,8.877C172.951,227.535,172.771,227.869,172.582,228.202z"/>
	<path fill="#638170" d="M135.094,217.707c-1.973,0.19-2.159-0.811-1.09-2.354c0,0,0.288-0.183,0.734-0.439
		c-0.074-2.404,0.418-4.79,1.38-6.713c0.34-0.748,0.729-1.466,1.154-2.163c-4.758,0.188-10.761,0.735-14.801,2.02
		c-4.824,1.535-7.249,4.51-8.473,7.338c-1.224,2.828-1.688,6.123,1.647,12.102c2.138,3.83-3.53,1.977-2.118,7.907
		c1.412,5.931,3.106,7.767,3.106,7.767s15.674-14.687,20.192-16.945c0.599-0.3,1.2-0.606,1.792-0.907
		c-0.418-1.063-0.897-2.112-1.501-3.119C136.124,220.874,135.465,219.327,135.094,217.707z M129.908,219.729
		c-2.118,0.848-4.941,0.848-4.941,0.848s0.284-2.84,4.941-2.842C129.908,217.735,132.026,218.884,129.908,219.729z"/>
</g>
<path fill="#7A9987" d="M158.863,196.774c0,0-6.901,17.022-10.384,33.11c-0.515,2.379-0.682,5.516-0.848,7.776
	c-1.271,17.368-4.757,22.594-6.049,24.43c-1.293,1.835,3.508,1.888,8.026-25.136c4.519-27.023,9.098-38.193,11.014-39.825
	L158.863,196.774z"/>
<rect x="231.966" y="-0.264" fill="#5E615D" width="2.11" height="93.667"/>
<path fill="#C6C6C6" d="M235.316,82.198c-0.742-0.122-1.498-0.201-2.274-0.201c-7.723,0-13.984,6.261-13.984,13.984v42.709h5.95
	C223.198,118.055,222.753,97.219,235.316,82.198z"/>
<path opacity="0.2" fill="#5C5C40" d="M235.316,82.198c-0.742-0.122-1.498-0.201-2.274-0.201c-7.723,0-13.984,6.261-13.984,13.984
	v42.709h5.95C223.198,118.055,222.753,97.219,235.316,82.198z"/>
<path fill="#638170" d="M171.994,247.754l1.729-1.197c0,0,3.796,5.435,12.698,12.6c3.289,2.647,19.188,15.291,22.352,17.477
	c1.551,1.072-14.008-9.09-20.005-14.319C182.769,257.082,171.994,247.754,171.994,247.754z"/>
<path fill="#C6C6C6" d="M247.027,95.981c0-6.947-5.071-12.695-11.71-13.783c-12.563,15.021-12.119,35.856-10.309,56.492h22.019
	V95.981z"/>
<rect x="285.766" fill="#5E615D" width="1.322" height="70.046"/>
<path fill="#C6C6C6" d="M297.074,72.01c0-5.881-4.767-10.647-10.647-10.647c-5.88,0-10.647,4.767-10.647,10.647v32.517h21.294V72.01
	z"/>
<polygon fill="#EAEAEA" points="607.62,258.393 505.87,258.393 515.87,252.769 597.62,252.769 "/>
<g>
	<g>
		<g>
			<rect x="515.402" y="172.155" fill="#3A3A3A" width="64.393" height="83.425"/>
			<rect x="518.263" y="175.039" fill="#FFFFFF" width="58.672" height="77.301"/>
		</g>
		<g>
			<circle fill="#CDCBC4" cx="550.48" cy="192.468" r="4.509"/>
			<circle fill="#CDCBC4" cx="540.959" cy="190.739" r="2.781"/>
			<circle fill="#CDCBC4" cx="545.135" cy="206.833" r="3.95"/>
			<circle fill="#CDCBC4" cx="554.43" cy="204.328" r="3.061"/>
			<circle fill="#CDCBC4" cx="542.909" cy="216.353" r="4.063"/>
			<circle fill="#CDCBC4" cx="556.105" cy="214.844" r="3.956"/>
			<g>
				<path fill="#CDCBC4" d="M546.474,243.124c-0.097-1.036-2.277-25.352,6.574-27.261l0.211,0.979
					c-7.989,1.723-5.811,25.943-5.787,26.188L546.474,243.124z"/>
			</g>
			<g>
				<path fill="#CDCBC4" d="M547.88,226.107l-0.996-0.109c0.527-4.785-2.026-6.78-2.051-6.799l0.604-0.799
					C545.562,218.494,548.469,220.764,547.88,226.107z"/>
			</g>
			<g>
				<path fill="#CDCBC4" d="M548.713,222.446l-1.002-0.04c0.854-22.08-6.81-30.346-6.887-30.426l0.721-0.695
					C541.874,191.626,549.584,199.883,548.713,222.446z"/>
			</g>
			<g>
				<path fill="#CDCBC4" d="M546.185,207.473c-1.365-7.934,2.39-11.699,2.551-11.855l0.7,0.716
					c-0.036,0.036-3.535,3.587-2.262,10.969L546.185,207.473z"/>
			</g>
			<g>
				<path fill="#CDCBC4" d="M547.599,213.689c-0.048-3.837,0.696-6.464,2.215-7.81c1.164-1.032,2.353-0.887,2.402-0.879
					l-0.134,0.993l0.067-0.497l-0.062,0.497c-0.032-0.001-0.823-0.078-1.638,0.66c-0.874,0.794-1.905,2.658-1.849,7.025
					L547.599,213.689z"/>
			</g>
		</g>
		<polygon fill="#727272" points="576.937,252.34 579.798,255.58 579.798,172.155 576.937,175.04 		"/>
		<polygon fill="#111111" points="518.263,252.161 515.402,255.402 515.402,171.976 518.263,174.861 		"/>
	</g>
	<polygon opacity="0.7" fill="#C6C6C6" points="579.704,177.105 593.432,252.34 579.798,252.34 	"/>
</g>
<g>
	<rect x="559.549" y="246.795" fill="#DED5C6" width="50.883" height="11.247"/>
	<rect x="565.795" y="241.523" fill="#E9E7DE" width="48.854" height="5.272"/>
	<rect x="559.609" y="236.721" fill="#CDCAC6" width="48.071" height="5.976"/>
	<rect x="559.609" y="231.098" fill="#DED5C6" width="50.883" height="5.623"/>
	<rect x="569.019" y="226.177" fill="#E9E7DE" width="47.448" height="4.921"/>
</g>
<g>
	<circle opacity="0.4" fill="#C6C6C6" cx="411.694" cy="133.36" r="55.22"/>
	<circle fill="#333533" cx="407.981" cy="128.74" r="52.93"/>
	<path fill="#FFFFFF" d="M458.833,128.74c0-28.085-22.767-50.853-50.852-50.853c-28.086,0-50.853,22.767-50.853,50.853
		c0,2.398,0.178,4.753,0.499,7.063h100.707C458.655,133.494,458.833,131.138,458.833,128.74z"/>
	<path fill="#EADADA" d="M357.627,135.803c3.441,24.74,24.667,43.789,50.354,43.789c25.687,0,46.912-19.049,50.353-43.789H357.627z"
		/>
	<g>
		<g>
			<polygon fill="#333533" points="396.548,136.446 399.96,137.726 422.564,95.928 421.072,95.928 			"/>
		</g>
		<g>
			<polygon fill="#333533" points="396.548,119.386 394.415,121.519 439.838,157.558 439.838,156.279 			"/>
		</g>
		<g>
			
				<rect x="402.552" y="108.652" transform="matrix(0.9975 0.0703 -0.0703 0.9975 10.6529 -27.9851)" fill="#333533" width="1.001" height="57.508"/>
		</g>
	</g>
	<g>
		<path fill="#EADADA" d="M406.881,81.952v10.905h-0.825V82.793h-0.67v-0.841H406.881z M405.447,82.029v0.686h0.686v10.064h0.67
			v-10.75H405.447z M406.663,82.169v10.469h-0.39v-10.08h-0.701v-0.39H406.663z"/>
		<path fill="#EADADA" d="M411.694,85.628c-0.015,0.795-0.731,1.465-1.511,2.197c-0.717,0.654-1.387,1.309-1.418,1.932V92h2.929
			v0.857h-3.754v-3.116c0.047-0.981,0.872-1.792,1.698-2.54c0.607-0.545,1.23-1.184,1.246-1.574v-1.667
			c0-0.966-0.515-1.262-1.013-1.262c-0.701,0-1.06,0.545-1.06,1.309v0.841h-0.794v-0.873c0-1.511,0.981-2.119,1.854-2.119
			c0.811,0,1.822,0.545,1.822,2.088V85.628z M411.617,83.946c0-1.496-0.981-2.01-1.745-2.01c-0.856,0-1.776,0.592-1.776,2.041v0.795
			h0.639v-0.764c0-0.81,0.39-1.386,1.138-1.386c0.529,0,1.106,0.312,1.106,1.34v1.667c-0.016,0.421-0.67,1.075-1.278,1.621
			c-0.794,0.716-1.636,1.573-1.682,2.493v3.038h3.599v-0.701h-2.929v-2.337c0.03-0.639,0.731-1.293,1.433-1.963
			c0.779-0.717,1.496-1.387,1.496-2.15V83.946z M411.492,85.628c-0.016,0.701-0.717,1.34-1.449,2.025
			c-0.747,0.701-1.464,1.371-1.495,2.088c0,0.156,0,1.745,0,2.493h2.944v0.405h-3.334c0-0.218,0-2.68,0-2.897
			c0.047-0.888,0.826-1.636,1.62-2.368c0.654-0.592,1.324-1.262,1.34-1.745v-1.667c0-1.153-0.639-1.496-1.246-1.496
			c-0.841,0-1.277,0.654-1.277,1.542v0.608h-0.358v-0.639c0-1.34,0.856-1.9,1.636-1.9c0.717,0,1.62,0.483,1.62,1.87V85.628z"/>
	</g>
	<g>
		<path fill="#EADADA" d="M450.434,128.741h0.592c0.701-0.046,1.06-0.701,1.06-1.449v-2.228c0-0.873-0.421-1.278-0.981-1.278
			c-0.717,0-1.122,0.514-1.122,1.293v0.856h-0.779v-0.872c0-1.651,1.028-2.104,1.901-2.104c0.966,0,1.807,0.654,1.807,2.088v2.243
			c0,0.935-0.249,1.387-0.764,1.823c0.686,0.39,0.889,1.215,0.889,2.072v0.607c0,1.262-0.717,2.321-1.963,2.321
			c-1.169,0-1.994-0.95-1.994-2.306v-0.981h0.794v0.981c0,0.857,0.437,1.433,1.2,1.433c0.716,0,1.152-0.592,1.152-1.449v-0.607
			c0-0.841-0.296-1.589-1.184-1.589h-0.607V128.741z M450.511,129.52h0.53c0.935,0,1.262,0.779,1.262,1.667v0.607
			c0,0.888-0.468,1.527-1.23,1.527c-0.811,0-1.278-0.607-1.278-1.511v-0.904h-0.639v0.904c0,1.309,0.795,2.228,1.917,2.228
			c1.199,0,1.885-0.997,1.885-2.244v-0.607c0-0.966-0.28-1.683-0.935-2.057c0.576-0.436,0.81-1.044,0.81-1.838v-2.243
			c0-1.387-0.794-2.025-1.729-2.025c-0.842,0-1.823,0.452-1.823,2.041v0.794h0.639v-0.779c0-0.826,0.421-1.355,1.185-1.355
			c0.576,0,1.059,0.42,1.059,1.34v2.228c0,0.794-0.389,1.48-1.137,1.527h-0.515V129.52z M450.651,128.959h0.39
			c0.825-0.031,1.262-0.794,1.262-1.667v-2.228c0-1.013-0.529-1.496-1.199-1.496c-0.842,0-1.324,0.592-1.324,1.511v0.623h-0.358
			v-0.639c0-1.465,0.919-1.885,1.683-1.885c0.856,0,1.589,0.576,1.589,1.87v2.243c0,0.81-0.312,1.464-0.981,1.854
			c0.778,0.296,1.105,1.013,1.105,2.041v0.607c0,1.153-0.639,2.088-1.744,2.088c-1.044,0-1.776-0.841-1.776-2.072v-0.748h0.358
			v0.748c0,0.997,0.529,1.651,1.418,1.651c0.856,0,1.371-0.686,1.371-1.667v-0.607c0-0.966-0.358-1.823-1.402-1.823h-0.39V128.959z"
			/>
	</g>
	<g>
		<path fill="#EADADA" d="M365.8,130.61v1.168c-0.031,1.278-0.701,2.29-1.979,2.29s-1.994-1.012-1.994-2.29v-6.512
			c0-1.293,0.795-2.29,2.01-2.29c1.246,0,1.916,0.935,1.916,2.306v0.592h-0.795v-0.592c0-0.857-0.373-1.48-1.121-1.48
			c-0.732,0-1.169,0.561-1.2,1.464v3.537c0.327-0.312,0.811-0.499,1.216-0.499C365.021,128.305,365.8,129.115,365.8,130.61z
			 M362.56,128.99v-3.724c0.031-0.95,0.498-1.526,1.277-1.526c0.794,0,1.184,0.639,1.184,1.542v0.514h0.654v-0.514
			c0-1.324-0.654-2.228-1.838-2.228c-1.169,0-1.932,0.95-1.932,2.212v6.512c0,1.247,0.686,2.212,1.916,2.212
			c1.246,0,1.869-0.95,1.9-2.212v-1.168c0-1.433-0.748-2.228-1.869-2.228C363.4,128.383,362.918,128.601,362.56,128.99z
			 M365.582,130.61v1.168c-0.031,1.168-0.624,2.057-1.761,2.057c-1.138,0-1.776-0.904-1.776-2.057c0-1.667,0-5.125,0-6.512
			c0-1.168,0.701-2.072,1.792-2.072c1.106,0,1.698,0.857,1.698,2.087v0.374h-0.374v-0.374c0-0.997-0.437-1.698-1.324-1.698
			c-0.857,0-1.387,0.639-1.418,1.682v4.129c0.327-0.561,0.919-0.857,1.434-0.857C364.896,128.539,365.582,129.271,365.582,130.61z
			 M365.208,130.61c0-1.153-0.483-1.683-1.355-1.683c-0.889,0-1.418,0.748-1.418,1.667c0-0.031,0,0.873,0,1.184
			c0,0.888,0.483,1.636,1.387,1.636c0.919,0,1.387-0.748,1.387-1.651V130.61z M365.067,131.763c0,0.826-0.421,1.511-1.246,1.511
			c-0.826,0-1.246-0.686-1.246-1.496v-1.184c0-0.841,0.467-1.526,1.277-1.526c0.794,0,1.215,0.499,1.215,1.542V131.763z
			 M364.989,130.61c0-0.997-0.404-1.464-1.137-1.464c-0.764,0-1.216,0.639-1.216,1.449v1.184c0,0.764,0.421,1.418,1.185,1.418
			c0.779,0,1.168-0.654,1.168-1.434V130.61z"/>
	</g>
	<g>
		<path fill="#CCB6B6" d="M410.543,173.895c0,1.309-0.748,2.306-2.025,2.306c-1.2,0-1.947-1.075-1.947-2.321v-0.592h0.794v0.592
			c0,0.811,0.421,1.449,1.153,1.449c0.825,0,1.246-0.624,1.246-1.434v-2.368c-0.296,0.327-0.732,0.607-1.184,0.607
			c-1.559,0-2.01-1.496-2.01-2.804v-1.527c0-1.324,0.561-2.727,2.01-2.727c1.417,0,1.963,1.309,1.963,2.742V173.895z
			 M410.465,167.819c0-1.387-0.53-2.664-1.885-2.664c-1.402,0-1.948,1.355-1.948,2.648v1.527c0,1.277,0.437,2.726,1.948,2.726
			c0.498,0,0.966-0.327,1.246-0.732v2.57c0,0.841-0.437,1.511-1.309,1.511c-0.795,0-1.216-0.686-1.216-1.527v-0.529h-0.654v0.529
			c0,1.2,0.717,2.244,1.87,2.244c1.23,0,1.947-0.95,1.947-2.228V167.819z M410.34,173.895c0,1.184-0.67,2.072-1.822,2.072
			c-1.075,0-1.729-0.966-1.729-2.088v-0.374h0.374v0.374c0,0.935,0.482,1.667,1.355,1.667c0.966,0,1.448-0.732,1.448-1.651v-3.163
			c-0.202,0.639-0.717,1.168-1.386,1.168c-1.402,0-1.808-1.371-1.808-2.57c0-0.483,0-0.95,0-1.527c0-1.215,0.514-2.508,1.808-2.508
			c1.262,0,1.76,1.215,1.76,2.524V173.895z M409.935,167.819c0-0.997-0.28-2.103-1.354-2.103c-1.028,0-1.418,1.09-1.418,2.087
			c0,0.95,0,0.156,0,1.527c0,0.841,0.233,2.15,1.418,2.15c0.966,0,1.354-1.277,1.354-2.166V167.819z M409.811,169.314
			c0,0.826-0.374,2.025-1.23,2.025c-1.075,0-1.278-1.231-1.278-2.01v-1.527c0-0.919,0.358-1.932,1.278-1.932
			c0.966,0,1.23,1.028,1.23,1.947V169.314z M409.732,167.819c0-0.888-0.249-1.885-1.152-1.885c-0.873,0-1.2,0.981-1.2,1.87v1.527
			c0,0.748,0.188,1.932,1.2,1.932c0.81,0,1.152-1.153,1.152-1.947V167.819z"/>
	</g>
</g>
<path opacity="0.2" fill="#5C5C40" d="M288.087,61.636c-0.562-0.092-1.134-0.152-1.722-0.152c-5.847,0-10.586,4.739-10.586,10.586
	v32.332h4.504C278.913,88.78,278.577,73.007,288.087,61.636z"/>
<polygon fill="#C6C6C6" points="509.56,346.436 505.87,349.071 505.87,258.393 509.56,261.029 "/>
<polygon fill="#EFEFEF" points="604.228,346.437 607.917,349.072 607.917,258.394 604.228,261.03 "/>
<polygon opacity="0.5" fill="#CDCBC4" points="610.492,231.098 616.467,231.098 607.681,242.697 607.681,236.721 610.492,236.721 
	"/>
<polygon opacity="0.5" fill="#CDCBC4" points="610.492,246.795 614.531,246.795 610.492,252.418 "/>
<g>
	<path fill="#967364" d="M318.334,398.873c-0.045-0.667-4.555-66.7-4.832-69.411c-0.025-0.248-0.045-0.512-0.065-0.787
		c-0.224-2.996-0.561-7.523-10.566-10.191c-4.629-1.234-12.551-2.812-20.938-4.481c-12.085-2.406-24.582-4.895-29.611-6.805
		c-9.921-3.77-16.781-16.855-20.788-27.17c-3.373-8.68-7.424-26.529-10.68-40.872c-2.411-10.621-4.493-19.794-5.646-22.457
		c-2.77-6.394-8.711-5.437-8.771-5.424l-0.172-0.985c0.067-0.009,6.78-1.096,9.86,6.012c1.19,2.749,3.282,11.963,5.704,22.633
		c3.248,14.31,7.291,32.121,10.636,40.732c5.642,14.519,12.631,23.716,20.212,26.596c4.951,1.882,17.406,4.361,29.451,6.76
		c8.403,1.673,16.339,3.253,21,4.495c10.691,2.852,11.076,8.005,11.305,11.083c0.02,0.267,0.039,0.521,0.063,0.761
		c0.278,2.728,4.649,66.722,4.835,69.444L318.334,398.873z"/>
</g>
<path fill="#638170" d="M56.166,221.9c0,0-0.913,0.087-1.434-0.077c-1.136-0.356-7.024,7.76-9.69,11.01s-9.154,10.28-11.542,12.5
	c-0.403,0.375,9.307-8.505,12.958-13.25C50.025,227.45,54.165,222.634,56.166,221.9z"/>
</svg>
